%TF.GenerationSoftware,KiCad,Pcbnew,6.0.11+dfsg-1*%
%TF.CreationDate,2026-07-22T18:46:38-07:00*%
%TF.ProjectId,USB-pasthrough,5553422d-7061-4737-9468-726f7567682e,rev?*%
%TF.SameCoordinates,Original*%
%TF.FileFunction,Copper,L2,Inr*%
%TF.FilePolarity,Positive*%
%FSLAX46Y46*%
G04 Gerber Fmt 4.6, Leading zero omitted, Abs format (unit mm)*
G04 Created by KiCad (PCBNEW 6.0.11+dfsg-1) date 2026-07-22 18:46:38*
%MOMM*%
%LPD*%
G01*
G04 APERTURE LIST*
G04 Aperture macros list*
%AMFreePoly0*
4,1,38,0.174003,0.741867,0.334039,0.684881,0.477472,0.593856,0.597174,0.473315,0.687196,0.329249,0.743064,0.168820,0.762000,0.000000,0.761703,-0.021276,0.738060,-0.189502,0.677735,-0.348309,0.583726,-0.489804,0.460705,-0.606956,0.314786,-0.693941,0.153221,-0.746436,-0.015958,-0.761833,-0.184344,-0.739365,-0.343569,-0.680150,-0.485717,-0.587131,-0.603725,-0.464931,-0.691726,-0.319622,
-0.714886,-0.250000,-2.540000,-0.250000,-2.635671,-0.230970,-2.716777,-0.176777,-2.770970,-0.095671,-2.790000,0.000000,-2.770970,0.095671,-2.716777,0.176777,-2.635671,0.230970,-2.540000,0.250000,-0.714857,0.250000,-0.682532,0.338812,-0.590508,0.481606,-0.469134,0.600464,-0.324444,0.689478,-0.163628,0.744224,0.005320,0.761981,0.174003,0.741867,0.174003,0.741867,$1*%
G04 Aperture macros list end*
%TA.AperFunction,ComponentPad*%
%ADD10C,4.400000*%
%TD*%
%TA.AperFunction,ComponentPad*%
%ADD11R,1.700000X1.700000*%
%TD*%
%TA.AperFunction,ComponentPad*%
%ADD12O,1.700000X1.700000*%
%TD*%
%TA.AperFunction,ComponentPad*%
%ADD13R,1.524000X1.524000*%
%TD*%
%TA.AperFunction,ComponentPad*%
%ADD14FreePoly0,0.000000*%
%TD*%
%TA.AperFunction,ComponentPad*%
%ADD15C,1.524000*%
%TD*%
%TA.AperFunction,ComponentPad*%
%ADD16C,0.700000*%
%TD*%
%TA.AperFunction,ComponentPad*%
%ADD17O,0.900000X1.700000*%
%TD*%
%TA.AperFunction,ComponentPad*%
%ADD18O,0.900000X2.400000*%
%TD*%
%TA.AperFunction,ComponentPad*%
%ADD19C,2.000000*%
%TD*%
%TA.AperFunction,ComponentPad*%
%ADD20R,1.600000X1.600000*%
%TD*%
%TA.AperFunction,ComponentPad*%
%ADD21C,1.600000*%
%TD*%
%TA.AperFunction,ComponentPad*%
%ADD22C,1.500000*%
%TD*%
%TA.AperFunction,ComponentPad*%
%ADD23R,1.600000X1.500000*%
%TD*%
%TA.AperFunction,ComponentPad*%
%ADD24C,3.000000*%
%TD*%
%TA.AperFunction,ComponentPad*%
%ADD25R,1.000000X1.000000*%
%TD*%
%TA.AperFunction,ComponentPad*%
%ADD26O,1.000000X1.000000*%
%TD*%
%TA.AperFunction,ComponentPad*%
%ADD27R,1.070000X1.800000*%
%TD*%
%TA.AperFunction,ComponentPad*%
%ADD28O,1.070000X1.800000*%
%TD*%
%TA.AperFunction,ViaPad*%
%ADD29C,0.800000*%
%TD*%
G04 APERTURE END LIST*
D10*
%TO.N,N/C*%
%TO.C,H4*%
X136850000Y-126900000D03*
%TD*%
D11*
%TO.N,/VBUS_PWR*%
%TO.C,J3*%
X114725000Y-64100000D03*
D12*
%TO.N,+5V*%
X117265000Y-64100000D03*
%TO.N,/VBUS_DATA*%
X119805000Y-64100000D03*
%TD*%
D10*
%TO.N,N/C*%
%TO.C,H1*%
X103000000Y-53000000D03*
%TD*%
D13*
%TO.N,Net-(R4-Pad1)*%
%TO.C,SW1*%
X132050000Y-58800000D03*
D14*
%TO.N,+3V3*%
X137130000Y-58800000D03*
D15*
X134590000Y-58800000D03*
%TD*%
D16*
%TO.N,GND*%
%TO.C,J2*%
X123075000Y-56125000D03*
%TO.N,Net-(F2-Pad2)*%
X122225000Y-56125000D03*
%TO.N,Net-(J2-PadA5)*%
X121375000Y-56125000D03*
%TO.N,/USBC+*%
X120525000Y-56125000D03*
%TO.N,/USBC-*%
X119675000Y-56125000D03*
%TO.N,unconnected-(J2-PadA8)*%
X118825000Y-56125000D03*
%TO.N,Net-(F2-Pad2)*%
X117975000Y-56125000D03*
%TO.N,GND*%
X117125000Y-56125000D03*
X117125000Y-54775000D03*
%TO.N,Net-(F2-Pad2)*%
X117975000Y-54775000D03*
%TO.N,Net-(J2-PadB5)*%
X118825000Y-54775000D03*
%TO.N,/USBC+*%
X119675000Y-54775000D03*
%TO.N,/USBC-*%
X120525000Y-54775000D03*
%TO.N,unconnected-(J2-PadB8)*%
X121375000Y-54775000D03*
%TO.N,Net-(F2-Pad2)*%
X122225000Y-54775000D03*
%TO.N,GND*%
X123075000Y-54775000D03*
D17*
X124425000Y-51765000D03*
X115775000Y-51765000D03*
D18*
X124425000Y-55145000D03*
X115775000Y-55145000D03*
%TD*%
D11*
%TO.N,+3V3*%
%TO.C,J6*%
X138450000Y-110090000D03*
D12*
%TO.N,/SWCLK*%
X138450000Y-112630000D03*
%TO.N,GND*%
X138450000Y-115170000D03*
%TO.N,/SWDIO*%
X138450000Y-117710000D03*
%TO.N,/nRESET*%
X138450000Y-120250000D03*
%TO.N,/SWO*%
X138450000Y-122790000D03*
%TD*%
D10*
%TO.N,N/C*%
%TO.C,H2*%
X137000000Y-53000000D03*
%TD*%
D11*
%TO.N,GND*%
%TO.C,J5*%
X108925000Y-107400000D03*
D12*
%TO.N,unconnected-(J5-Pad2)*%
X111465000Y-107400000D03*
%TO.N,+3V3*%
X114005000Y-107400000D03*
%TO.N,/SPI1_SCK*%
X116545000Y-107400000D03*
%TO.N,/SPI1_MISO*%
X119085000Y-107400000D03*
%TO.N,/SPI1_MOSI*%
X121625000Y-107400000D03*
%TO.N,/LCD_CS*%
X124165000Y-107400000D03*
%TO.N,/LCD_DC*%
X126705000Y-107400000D03*
%TO.N,/LCD_RST*%
X129245000Y-107400000D03*
%TO.N,/LCD_BL*%
X131785000Y-107400000D03*
%TD*%
D13*
%TO.N,/nRESET*%
%TO.C,SW2*%
X132060000Y-65050000D03*
D15*
%TO.N,GND*%
X134600000Y-65050000D03*
D14*
X137140000Y-65050000D03*
%TD*%
D19*
%TO.N,GND*%
%TO.C,TP1*%
X112200000Y-52100000D03*
%TD*%
D20*
%TO.N,+5V*%
%TO.C,C1*%
X107650000Y-72800000D03*
D21*
%TO.N,GND*%
X105150000Y-72800000D03*
%TD*%
D22*
%TO.N,Net-(C1-Pad2)*%
%TO.C,Y1*%
X104800000Y-87250000D03*
%TO.N,Net-(C18-Pad2)*%
X104800000Y-92130000D03*
%TD*%
D23*
%TO.N,/VBUSA*%
%TO.C,J8*%
X116350000Y-120700000D03*
D21*
%TO.N,/USBA-*%
X118850000Y-120700000D03*
%TO.N,/USBA+*%
X120850000Y-120700000D03*
%TO.N,GND*%
X123350000Y-120700000D03*
D24*
X113280000Y-123410000D03*
X126420000Y-123410000D03*
%TD*%
D10*
%TO.N,N/C*%
%TO.C,H3*%
X102850000Y-126900000D03*
%TD*%
D25*
%TO.N,+3V3*%
%TO.C,J4*%
X132200000Y-71775000D03*
D26*
%TO.N,/SWDIO*%
X132200000Y-70505000D03*
%TO.N,GND*%
X133470000Y-71775000D03*
%TO.N,/SWCLK*%
X133470000Y-70505000D03*
%TO.N,GND*%
X134740000Y-71775000D03*
%TO.N,/SWO*%
X134740000Y-70505000D03*
%TO.N,unconnected-(J4-Pad7)*%
X136010000Y-71775000D03*
%TO.N,unconnected-(J4-Pad8)*%
X136010000Y-70505000D03*
%TO.N,GND*%
X137280000Y-71775000D03*
%TO.N,/nRESET*%
X137280000Y-70505000D03*
%TD*%
D27*
%TO.N,Net-(R18-Pad2)*%
%TO.C,RGB_LED1*%
X105950000Y-121800000D03*
D28*
%TO.N,GND*%
X107220000Y-121800000D03*
%TO.N,Net-(R17-Pad1)*%
X108490000Y-121800000D03*
%TO.N,Net-(R19-Pad1)*%
X109760000Y-121800000D03*
%TD*%
D20*
%TO.N,+3V3*%
%TO.C,C10*%
X124050000Y-65625000D03*
D21*
%TO.N,GND*%
X126550000Y-65625000D03*
%TD*%
D11*
%TO.N,/TXD*%
%TO.C,J7*%
X102300000Y-115975000D03*
D12*
%TO.N,/RXD*%
X102300000Y-118515000D03*
%TO.N,GND*%
X102300000Y-121055000D03*
%TD*%
D29*
%TO.N,+3V3*%
X110651683Y-85690498D03*
X111550000Y-74400000D03*
X129000000Y-76800000D03*
X114000000Y-69150000D03*
X129630233Y-82228300D03*
X113550000Y-77800000D03*
X107000000Y-79650000D03*
X114261273Y-98996073D03*
X108777219Y-88286367D03*
X126700000Y-98500000D03*
X115400000Y-72150000D03*
X121550000Y-78550000D03*
X129600000Y-101350000D03*
X108975500Y-80250000D03*
X112750000Y-81200000D03*
X107650000Y-94150000D03*
X108650000Y-83850000D03*
X113300000Y-82300000D03*
X113650000Y-89000000D03*
X126000000Y-101150000D03*
X110650000Y-101000000D03*
X122200000Y-90100000D03*
X114462500Y-101062500D03*
X132700000Y-89150000D03*
X128647864Y-82694243D03*
X112200000Y-72050000D03*
X119000000Y-69050000D03*
X132600000Y-95500000D03*
%TO.N,GND*%
X108250000Y-70200000D03*
X125899000Y-99024000D03*
X108575000Y-97775000D03*
X122250000Y-94950000D03*
X131400000Y-102900000D03*
X137238700Y-98250000D03*
X133400000Y-82000000D03*
X117650000Y-69050000D03*
X117750000Y-66750000D03*
X111450000Y-63650000D03*
X135075500Y-99850000D03*
X128300000Y-128200000D03*
X133750000Y-53400000D03*
X102850000Y-66900000D03*
X126037787Y-84635323D03*
X110400000Y-83050000D03*
X127700000Y-82750000D03*
X102850000Y-59650000D03*
X132500000Y-97000000D03*
X124300000Y-102550000D03*
X106350000Y-67000000D03*
X129000000Y-71450000D03*
X106350000Y-59500000D03*
X108550000Y-87050000D03*
X117925000Y-112550000D03*
X108600000Y-92200000D03*
X122275000Y-87925000D03*
X105750000Y-81300000D03*
X137238700Y-82800000D03*
X114650000Y-83650000D03*
X129675000Y-51525000D03*
X113650000Y-116225000D03*
X134850000Y-94750000D03*
X115850000Y-69300000D03*
X132800000Y-87600000D03*
X109500000Y-51100000D03*
X108600000Y-91162000D03*
X113300000Y-97650000D03*
X107100000Y-77850000D03*
X132400000Y-100000000D03*
X122100000Y-84700000D03*
X107550000Y-95550000D03*
X132550000Y-83150000D03*
X113756731Y-92847158D03*
X105700000Y-82850000D03*
X121900000Y-68100000D03*
X127750000Y-101200000D03*
X111900000Y-77800000D03*
X109400000Y-101000000D03*
X131700000Y-75050000D03*
X138750000Y-64050000D03*
X115325000Y-112125000D03*
X112950000Y-101050000D03*
X110986273Y-88190498D03*
X111700000Y-81350000D03*
%TO.N,/nRESET*%
X137438000Y-66862500D03*
X110638000Y-79058800D03*
%TO.N,/VBUS_DATA*%
X119626944Y-74751944D03*
X120925000Y-85450000D03*
%TO.N,/SPI1_MOSI*%
X116686000Y-103243000D03*
%TO.N,/LCD_CS*%
X115257000Y-96322600D03*
%TO.N,/LCD_RST*%
X114034000Y-95634300D03*
%TO.N,/LCD_BL*%
X126829000Y-80087900D03*
X135453000Y-83779100D03*
%TO.N,/SWDIO*%
X135550000Y-114850000D03*
%TO.N,/SWO*%
X139300000Y-73250000D03*
X127042000Y-77084600D03*
%TO.N,/USBA-*%
X130899500Y-86775000D03*
%TO.N,/USBA+*%
X130899500Y-85725000D03*
%TO.N,/SD1_D2*%
X124982000Y-88912300D03*
%TO.N,/LED5_G*%
X109501000Y-113460000D03*
X115516000Y-94344200D03*
%TO.N,/LED5_B*%
X107745000Y-110687000D03*
X116550000Y-90525000D03*
%TO.N,/TXD*%
X107070000Y-101155000D03*
%TO.N,/RXD*%
X110288000Y-110280000D03*
%TO.N,/SD1_D3*%
X124547000Y-89941700D03*
%TO.N,/SD1_CMD*%
X120675000Y-91225000D03*
%TO.N,Net-(J2-PadA5)*%
X127127000Y-53729000D03*
%TO.N,/SD1_CLK*%
X121425000Y-88440000D03*
%TO.N,/SD1_D0*%
X125397000Y-87182100D03*
%TO.N,/SD1_D1*%
X126330322Y-88152460D03*
%TO.N,/SD1_CDET*%
X128500000Y-80900000D03*
X113850000Y-87725000D03*
%TO.N,/SWCLK_*%
X136488000Y-75589500D03*
X127276000Y-79250000D03*
%TO.N,/SWDIO_*%
X128131000Y-96722200D03*
X126315000Y-85597500D03*
%TO.N,Net-(ID1-Pad1)*%
X121425000Y-83925000D03*
%TO.N,Net-(ID2-Pad1)*%
X121275000Y-79650000D03*
%TO.N,Net-(ID3-Pad1)*%
X120450000Y-80375000D03*
%TO.N,Net-(ID4-Pad1)*%
X119474000Y-85798800D03*
%TO.N,Net-(ID5-Pad1)*%
X119051000Y-84948400D03*
%TO.N,/USBA_ENA*%
X111888400Y-112374700D03*
X117652700Y-100766600D03*
%TO.N,Net-(R4-Pad1)*%
X126400000Y-76325000D03*
%TD*%
%TA.AperFunction,Conductor*%
%TO.N,GND*%
G36*
X139741621Y-50220502D02*
G01*
X139788114Y-50274158D01*
X139799500Y-50326500D01*
X139799500Y-72622011D01*
X139779498Y-72690132D01*
X139725842Y-72736625D01*
X139655568Y-72746729D01*
X139610501Y-72731131D01*
X139609392Y-72730491D01*
X139602841Y-72725464D01*
X139456762Y-72664956D01*
X139300000Y-72644318D01*
X139143238Y-72664956D01*
X138997159Y-72725464D01*
X138871718Y-72821718D01*
X138775464Y-72947159D01*
X138714956Y-73093238D01*
X138694318Y-73250000D01*
X138714956Y-73406762D01*
X138775464Y-73552841D01*
X138780491Y-73559392D01*
X138862341Y-73666061D01*
X138871718Y-73678282D01*
X138997159Y-73774536D01*
X139143238Y-73835044D01*
X139300000Y-73855682D01*
X139308188Y-73854604D01*
X139448574Y-73836122D01*
X139456762Y-73835044D01*
X139602841Y-73774536D01*
X139609392Y-73769509D01*
X139610501Y-73768869D01*
X139679497Y-73752132D01*
X139746588Y-73775353D01*
X139790475Y-73831161D01*
X139799500Y-73877989D01*
X139799500Y-129673500D01*
X139779498Y-129741621D01*
X139725842Y-129788114D01*
X139673500Y-129799500D01*
X100326500Y-129799500D01*
X100258379Y-129779498D01*
X100211886Y-129725842D01*
X100200500Y-129673500D01*
X100200500Y-127027074D01*
X100220502Y-126958953D01*
X100274158Y-126912460D01*
X100344432Y-126902356D01*
X100409012Y-126931850D01*
X100447396Y-126991576D01*
X100452251Y-127019162D01*
X100463720Y-127201457D01*
X100520319Y-127498160D01*
X100613659Y-127785430D01*
X100615346Y-127789016D01*
X100615348Y-127789020D01*
X100740579Y-128055150D01*
X100740583Y-128055157D01*
X100742267Y-128058736D01*
X100904115Y-128313768D01*
X101096651Y-128546504D01*
X101316838Y-128753274D01*
X101561205Y-128930816D01*
X101825896Y-129076332D01*
X101829565Y-129077785D01*
X101829570Y-129077787D01*
X102103068Y-129186072D01*
X102106738Y-129187525D01*
X102399302Y-129262642D01*
X102698973Y-129300500D01*
X103001027Y-129300500D01*
X103300698Y-129262642D01*
X103593262Y-129187525D01*
X103596932Y-129186072D01*
X103870430Y-129077787D01*
X103870435Y-129077785D01*
X103874104Y-129076332D01*
X104138795Y-128930816D01*
X104383162Y-128753274D01*
X104603349Y-128546504D01*
X104795885Y-128313768D01*
X104957733Y-128058736D01*
X104959417Y-128055157D01*
X104959421Y-128055150D01*
X105084652Y-127789020D01*
X105084654Y-127789016D01*
X105086341Y-127785430D01*
X105179681Y-127498160D01*
X105236280Y-127201457D01*
X105255246Y-126900000D01*
X134444754Y-126900000D01*
X134463720Y-127201457D01*
X134520319Y-127498160D01*
X134613659Y-127785430D01*
X134615346Y-127789016D01*
X134615348Y-127789020D01*
X134740579Y-128055150D01*
X134740583Y-128055157D01*
X134742267Y-128058736D01*
X134904115Y-128313768D01*
X135096651Y-128546504D01*
X135316838Y-128753274D01*
X135561205Y-128930816D01*
X135825896Y-129076332D01*
X135829565Y-129077785D01*
X135829570Y-129077787D01*
X136103068Y-129186072D01*
X136106738Y-129187525D01*
X136399302Y-129262642D01*
X136698973Y-129300500D01*
X137001027Y-129300500D01*
X137300698Y-129262642D01*
X137593262Y-129187525D01*
X137596932Y-129186072D01*
X137870430Y-129077787D01*
X137870435Y-129077785D01*
X137874104Y-129076332D01*
X138138795Y-128930816D01*
X138383162Y-128753274D01*
X138603349Y-128546504D01*
X138795885Y-128313768D01*
X138957733Y-128058736D01*
X138959417Y-128055157D01*
X138959421Y-128055150D01*
X139084652Y-127789020D01*
X139084654Y-127789016D01*
X139086341Y-127785430D01*
X139179681Y-127498160D01*
X139236280Y-127201457D01*
X139255246Y-126900000D01*
X139236280Y-126598543D01*
X139179681Y-126301840D01*
X139086341Y-126014570D01*
X139084652Y-126010980D01*
X138959421Y-125744850D01*
X138959417Y-125744843D01*
X138957733Y-125741264D01*
X138795885Y-125486232D01*
X138603349Y-125253496D01*
X138383162Y-125046726D01*
X138138795Y-124869184D01*
X137874104Y-124723668D01*
X137870435Y-124722215D01*
X137870430Y-124722213D01*
X137596932Y-124613928D01*
X137596931Y-124613928D01*
X137593262Y-124612475D01*
X137300698Y-124537358D01*
X137001027Y-124499500D01*
X136698973Y-124499500D01*
X136399302Y-124537358D01*
X136106738Y-124612475D01*
X136103069Y-124613928D01*
X136103068Y-124613928D01*
X135829570Y-124722213D01*
X135829565Y-124722215D01*
X135825896Y-124723668D01*
X135561205Y-124869184D01*
X135316838Y-125046726D01*
X135096651Y-125253496D01*
X134904115Y-125486232D01*
X134742267Y-125741264D01*
X134740583Y-125744843D01*
X134740579Y-125744850D01*
X134615348Y-126010980D01*
X134613659Y-126014570D01*
X134520319Y-126301840D01*
X134463720Y-126598543D01*
X134444754Y-126900000D01*
X105255246Y-126900000D01*
X105236280Y-126598543D01*
X105179681Y-126301840D01*
X105086341Y-126014570D01*
X105084652Y-126010980D01*
X104959421Y-125744850D01*
X104959417Y-125744843D01*
X104957733Y-125741264D01*
X104795885Y-125486232D01*
X104603349Y-125253496D01*
X104383162Y-125046726D01*
X104138795Y-124869184D01*
X103874104Y-124723668D01*
X103870435Y-124722215D01*
X103870430Y-124722213D01*
X103596932Y-124613928D01*
X103596931Y-124613928D01*
X103593262Y-124612475D01*
X103300698Y-124537358D01*
X103001027Y-124499500D01*
X102698973Y-124499500D01*
X102399302Y-124537358D01*
X102106738Y-124612475D01*
X102103069Y-124613928D01*
X102103068Y-124613928D01*
X101829570Y-124722213D01*
X101829565Y-124722215D01*
X101825896Y-124723668D01*
X101561205Y-124869184D01*
X101316838Y-125046726D01*
X101096651Y-125253496D01*
X100904115Y-125486232D01*
X100742267Y-125741264D01*
X100740583Y-125744843D01*
X100740579Y-125744850D01*
X100615348Y-126010980D01*
X100613659Y-126014570D01*
X100520319Y-126301840D01*
X100463720Y-126598543D01*
X100463471Y-126602506D01*
X100452251Y-126780838D01*
X100428011Y-126847568D01*
X100371542Y-126890600D01*
X100300773Y-126896271D01*
X100238171Y-126862782D01*
X100203613Y-126800763D01*
X100200500Y-126772926D01*
X100200500Y-122719748D01*
X105214500Y-122719748D01*
X105215707Y-122725816D01*
X105222830Y-122761624D01*
X105226133Y-122778231D01*
X105270448Y-122844552D01*
X105336769Y-122888867D01*
X105348938Y-122891288D01*
X105348939Y-122891288D01*
X105363871Y-122894258D01*
X105395252Y-122900500D01*
X106504748Y-122900500D01*
X106536129Y-122894258D01*
X106551061Y-122891288D01*
X106551062Y-122891288D01*
X106563231Y-122888867D01*
X106629552Y-122844552D01*
X106673867Y-122778231D01*
X106677171Y-122761624D01*
X106684293Y-122725816D01*
X106685500Y-122719748D01*
X106685500Y-122207946D01*
X107754500Y-122207946D01*
X107769354Y-122335353D01*
X107771850Y-122342230D01*
X107771851Y-122342233D01*
X107798630Y-122416007D01*
X107827873Y-122496569D01*
X107921909Y-122639998D01*
X108046419Y-122757947D01*
X108099101Y-122788547D01*
X108188391Y-122840411D01*
X108188394Y-122840412D01*
X108194724Y-122844089D01*
X108201732Y-122846211D01*
X108201733Y-122846212D01*
X108351858Y-122891681D01*
X108358868Y-122893804D01*
X108366175Y-122894257D01*
X108366179Y-122894258D01*
X108444457Y-122899114D01*
X108530046Y-122904423D01*
X108537262Y-122903183D01*
X108537264Y-122903183D01*
X108691861Y-122876619D01*
X108691863Y-122876618D01*
X108699076Y-122875379D01*
X108856891Y-122808228D01*
X108995025Y-122706573D01*
X109028042Y-122667710D01*
X109087390Y-122628746D01*
X109158383Y-122628053D01*
X109210719Y-122657817D01*
X109256294Y-122700990D01*
X109316419Y-122757947D01*
X109369101Y-122788547D01*
X109458391Y-122840411D01*
X109458394Y-122840412D01*
X109464724Y-122844089D01*
X109471732Y-122846211D01*
X109471733Y-122846212D01*
X109621858Y-122891681D01*
X109628868Y-122893804D01*
X109636175Y-122894257D01*
X109636179Y-122894258D01*
X109714457Y-122899114D01*
X109800046Y-122904423D01*
X109807262Y-122903183D01*
X109807264Y-122903183D01*
X109961861Y-122876619D01*
X109961863Y-122876618D01*
X109969076Y-122875379D01*
X110126891Y-122808228D01*
X110171687Y-122775262D01*
X137394520Y-122775262D01*
X137395036Y-122781406D01*
X137404513Y-122894258D01*
X137411759Y-122980553D01*
X137468544Y-123178586D01*
X137471359Y-123184063D01*
X137471360Y-123184066D01*
X137492247Y-123224707D01*
X137562712Y-123361818D01*
X137690677Y-123523270D01*
X137847564Y-123656791D01*
X138027398Y-123757297D01*
X138122238Y-123788113D01*
X138217471Y-123819056D01*
X138217475Y-123819057D01*
X138223329Y-123820959D01*
X138427894Y-123845351D01*
X138434029Y-123844879D01*
X138434031Y-123844879D01*
X138490039Y-123840569D01*
X138633300Y-123829546D01*
X138639230Y-123827890D01*
X138639232Y-123827890D01*
X138825797Y-123775800D01*
X138825796Y-123775800D01*
X138831725Y-123774145D01*
X138837214Y-123771372D01*
X138837220Y-123771370D01*
X139010116Y-123684033D01*
X139015610Y-123681258D01*
X139177951Y-123554424D01*
X139312564Y-123398472D01*
X139333387Y-123361818D01*
X139411276Y-123224707D01*
X139414323Y-123219344D01*
X139479351Y-123023863D01*
X139505171Y-122819474D01*
X139505583Y-122790000D01*
X139485480Y-122584970D01*
X139425935Y-122387749D01*
X139329218Y-122205849D01*
X139255859Y-122115902D01*
X139202906Y-122050975D01*
X139202903Y-122050972D01*
X139199011Y-122046200D01*
X139181786Y-122031950D01*
X139045025Y-121918811D01*
X139045021Y-121918809D01*
X139040275Y-121914882D01*
X138859055Y-121816897D01*
X138662254Y-121755977D01*
X138656129Y-121755333D01*
X138656128Y-121755333D01*
X138463498Y-121735087D01*
X138463496Y-121735087D01*
X138457369Y-121734443D01*
X138370529Y-121742346D01*
X138258342Y-121752555D01*
X138258339Y-121752556D01*
X138252203Y-121753114D01*
X138054572Y-121811280D01*
X137872002Y-121906726D01*
X137867201Y-121910586D01*
X137867198Y-121910588D01*
X137856971Y-121918811D01*
X137711447Y-122035815D01*
X137579024Y-122193630D01*
X137576056Y-122199028D01*
X137576053Y-122199033D01*
X137505109Y-122328081D01*
X137479776Y-122374162D01*
X137417484Y-122570532D01*
X137416798Y-122576649D01*
X137416797Y-122576653D01*
X137407693Y-122657817D01*
X137394520Y-122775262D01*
X110171687Y-122775262D01*
X110265025Y-122706573D01*
X110376068Y-122575866D01*
X110454064Y-122423120D01*
X110462720Y-122387749D01*
X110493495Y-122261979D01*
X110494829Y-122256528D01*
X110495500Y-122245712D01*
X110495500Y-121469748D01*
X115349500Y-121469748D01*
X115361133Y-121528231D01*
X115405448Y-121594552D01*
X115471769Y-121638867D01*
X115483938Y-121641288D01*
X115483939Y-121641288D01*
X115524184Y-121649293D01*
X115530252Y-121650500D01*
X117169748Y-121650500D01*
X117175816Y-121649293D01*
X117216061Y-121641288D01*
X117216062Y-121641288D01*
X117228231Y-121638867D01*
X117294552Y-121594552D01*
X117338867Y-121528231D01*
X117350500Y-121469748D01*
X117350500Y-120685963D01*
X117844757Y-120685963D01*
X117861175Y-120881483D01*
X117915258Y-121070091D01*
X117918076Y-121075574D01*
X118002123Y-121239113D01*
X118002126Y-121239117D01*
X118004944Y-121244601D01*
X118126818Y-121398369D01*
X118131511Y-121402363D01*
X118131512Y-121402364D01*
X118203419Y-121463561D01*
X118276238Y-121525535D01*
X118281616Y-121528541D01*
X118281618Y-121528542D01*
X118317932Y-121548837D01*
X118447513Y-121621257D01*
X118634118Y-121681889D01*
X118828946Y-121705121D01*
X118835081Y-121704649D01*
X118835083Y-121704649D01*
X119018434Y-121690541D01*
X119018438Y-121690540D01*
X119024576Y-121690068D01*
X119213556Y-121637303D01*
X119388689Y-121548837D01*
X119418515Y-121525535D01*
X119538453Y-121431829D01*
X119543303Y-121428040D01*
X119571204Y-121395717D01*
X119667485Y-121284173D01*
X119667485Y-121284172D01*
X119671509Y-121279511D01*
X119683862Y-121257767D01*
X119740886Y-121157386D01*
X119791925Y-121108035D01*
X119861543Y-121094113D01*
X119927637Y-121120039D01*
X119962506Y-121162025D01*
X120004944Y-121244601D01*
X120126818Y-121398369D01*
X120131511Y-121402363D01*
X120131512Y-121402364D01*
X120203419Y-121463561D01*
X120276238Y-121525535D01*
X120281616Y-121528541D01*
X120281618Y-121528542D01*
X120317932Y-121548837D01*
X120447513Y-121621257D01*
X120634118Y-121681889D01*
X120828946Y-121705121D01*
X120835081Y-121704649D01*
X120835083Y-121704649D01*
X121018434Y-121690541D01*
X121018438Y-121690540D01*
X121024576Y-121690068D01*
X121213556Y-121637303D01*
X121388689Y-121548837D01*
X121418515Y-121525535D01*
X121538453Y-121431829D01*
X121543303Y-121428040D01*
X121571204Y-121395717D01*
X121667485Y-121284173D01*
X121667485Y-121284172D01*
X121671509Y-121279511D01*
X121683862Y-121257767D01*
X121740886Y-121157386D01*
X121768425Y-121108909D01*
X121830358Y-120922732D01*
X121854949Y-120728071D01*
X121855225Y-120708319D01*
X121855292Y-120703523D01*
X121855292Y-120703519D01*
X121855341Y-120700000D01*
X121836194Y-120504728D01*
X121834413Y-120498829D01*
X121834412Y-120498824D01*
X121781265Y-120322793D01*
X121779484Y-120316894D01*
X121736079Y-120235262D01*
X137394520Y-120235262D01*
X137411759Y-120440553D01*
X137468544Y-120638586D01*
X137471359Y-120644063D01*
X137471360Y-120644066D01*
X137549499Y-120796109D01*
X137562712Y-120821818D01*
X137690677Y-120983270D01*
X137695370Y-120987264D01*
X137695371Y-120987265D01*
X137838303Y-121108909D01*
X137847564Y-121116791D01*
X137852942Y-121119797D01*
X137852944Y-121119798D01*
X137884563Y-121137469D01*
X138027398Y-121217297D01*
X138094541Y-121239113D01*
X138217471Y-121279056D01*
X138217475Y-121279057D01*
X138223329Y-121280959D01*
X138427894Y-121305351D01*
X138434029Y-121304879D01*
X138434031Y-121304879D01*
X138490039Y-121300569D01*
X138633300Y-121289546D01*
X138639230Y-121287890D01*
X138639232Y-121287890D01*
X138776966Y-121249434D01*
X138831725Y-121234145D01*
X138837214Y-121231372D01*
X138837220Y-121231370D01*
X139010116Y-121144033D01*
X139015610Y-121141258D01*
X139177951Y-121014424D01*
X139224927Y-120960002D01*
X139308540Y-120863134D01*
X139308540Y-120863133D01*
X139312564Y-120858472D01*
X139333387Y-120821818D01*
X139375004Y-120748557D01*
X139414323Y-120679344D01*
X139479351Y-120483863D01*
X139505171Y-120279474D01*
X139505583Y-120250000D01*
X139485480Y-120044970D01*
X139425935Y-119847749D01*
X139329218Y-119665849D01*
X139255859Y-119575902D01*
X139202906Y-119510975D01*
X139202903Y-119510972D01*
X139199011Y-119506200D01*
X139172419Y-119484201D01*
X139045025Y-119378811D01*
X139045021Y-119378809D01*
X139040275Y-119374882D01*
X138859055Y-119276897D01*
X138662254Y-119215977D01*
X138656129Y-119215333D01*
X138656128Y-119215333D01*
X138463498Y-119195087D01*
X138463496Y-119195087D01*
X138457369Y-119194443D01*
X138370529Y-119202346D01*
X138258342Y-119212555D01*
X138258339Y-119212556D01*
X138252203Y-119213114D01*
X138054572Y-119271280D01*
X137872002Y-119366726D01*
X137867201Y-119370586D01*
X137867198Y-119370588D01*
X137819382Y-119409033D01*
X137711447Y-119495815D01*
X137579024Y-119653630D01*
X137576056Y-119659028D01*
X137576053Y-119659033D01*
X137489892Y-119815761D01*
X137479776Y-119834162D01*
X137417484Y-120030532D01*
X137416798Y-120036649D01*
X137416797Y-120036653D01*
X137404184Y-120149104D01*
X137394520Y-120235262D01*
X121736079Y-120235262D01*
X121687370Y-120143653D01*
X121563361Y-119991602D01*
X121412180Y-119866535D01*
X121239585Y-119773213D01*
X121145869Y-119744203D01*
X121058039Y-119717015D01*
X121058036Y-119717014D01*
X121052152Y-119715193D01*
X121046027Y-119714549D01*
X121046026Y-119714549D01*
X120863147Y-119695327D01*
X120863146Y-119695327D01*
X120857019Y-119694683D01*
X120734383Y-119705844D01*
X120667759Y-119711907D01*
X120667758Y-119711907D01*
X120661618Y-119712466D01*
X120655704Y-119714207D01*
X120655702Y-119714207D01*
X120535788Y-119749500D01*
X120473393Y-119767864D01*
X120467928Y-119770721D01*
X120304972Y-119855912D01*
X120304968Y-119855915D01*
X120299512Y-119858767D01*
X120294712Y-119862627D01*
X120294711Y-119862627D01*
X120283341Y-119871769D01*
X120146600Y-119981711D01*
X120020480Y-120132016D01*
X120017514Y-120137412D01*
X120017511Y-120137416D01*
X119960263Y-120241548D01*
X119909918Y-120291606D01*
X119840501Y-120306499D01*
X119774052Y-120281498D01*
X119738598Y-120239999D01*
X119690268Y-120149104D01*
X119687370Y-120143653D01*
X119563361Y-119991602D01*
X119412180Y-119866535D01*
X119239585Y-119773213D01*
X119145869Y-119744203D01*
X119058039Y-119717015D01*
X119058036Y-119717014D01*
X119052152Y-119715193D01*
X119046027Y-119714549D01*
X119046026Y-119714549D01*
X118863147Y-119695327D01*
X118863146Y-119695327D01*
X118857019Y-119694683D01*
X118734383Y-119705844D01*
X118667759Y-119711907D01*
X118667758Y-119711907D01*
X118661618Y-119712466D01*
X118655704Y-119714207D01*
X118655702Y-119714207D01*
X118535788Y-119749500D01*
X118473393Y-119767864D01*
X118467928Y-119770721D01*
X118304972Y-119855912D01*
X118304968Y-119855915D01*
X118299512Y-119858767D01*
X118294712Y-119862627D01*
X118294711Y-119862627D01*
X118283341Y-119871769D01*
X118146600Y-119981711D01*
X118020480Y-120132016D01*
X118017516Y-120137408D01*
X118017513Y-120137412D01*
X117953681Y-120253522D01*
X117925956Y-120303954D01*
X117866628Y-120490978D01*
X117844757Y-120685963D01*
X117350500Y-120685963D01*
X117350500Y-119930252D01*
X117338867Y-119871769D01*
X117294552Y-119805448D01*
X117228231Y-119761133D01*
X117216062Y-119758712D01*
X117216061Y-119758712D01*
X117175816Y-119750707D01*
X117169748Y-119749500D01*
X115530252Y-119749500D01*
X115524184Y-119750707D01*
X115483939Y-119758712D01*
X115483938Y-119758712D01*
X115471769Y-119761133D01*
X115405448Y-119805448D01*
X115361133Y-119871769D01*
X115349500Y-119930252D01*
X115349500Y-121469748D01*
X110495500Y-121469748D01*
X110495500Y-121392054D01*
X110483356Y-121287890D01*
X110481494Y-121271919D01*
X110481494Y-121271918D01*
X110480646Y-121264647D01*
X110469575Y-121234145D01*
X110424624Y-121110310D01*
X110422127Y-121103431D01*
X110328091Y-120960002D01*
X110203581Y-120842053D01*
X110112085Y-120788908D01*
X110061609Y-120759589D01*
X110061606Y-120759588D01*
X110055276Y-120755911D01*
X110048268Y-120753789D01*
X110048267Y-120753788D01*
X109898142Y-120708319D01*
X109898141Y-120708319D01*
X109891132Y-120706196D01*
X109883825Y-120705743D01*
X109883821Y-120705742D01*
X109802649Y-120700707D01*
X109719954Y-120695577D01*
X109712738Y-120696817D01*
X109712736Y-120696817D01*
X109558139Y-120723381D01*
X109558137Y-120723382D01*
X109550924Y-120724621D01*
X109393109Y-120791772D01*
X109254975Y-120893427D01*
X109230079Y-120922732D01*
X109221959Y-120932290D01*
X109162610Y-120971254D01*
X109091617Y-120971947D01*
X109039281Y-120942183D01*
X108938895Y-120847087D01*
X108933581Y-120842053D01*
X108842085Y-120788908D01*
X108791609Y-120759589D01*
X108791606Y-120759588D01*
X108785276Y-120755911D01*
X108778268Y-120753789D01*
X108778267Y-120753788D01*
X108628142Y-120708319D01*
X108628141Y-120708319D01*
X108621132Y-120706196D01*
X108613825Y-120705743D01*
X108613821Y-120705742D01*
X108532649Y-120700707D01*
X108449954Y-120695577D01*
X108442738Y-120696817D01*
X108442736Y-120696817D01*
X108288139Y-120723381D01*
X108288137Y-120723382D01*
X108280924Y-120724621D01*
X108123109Y-120791772D01*
X107984975Y-120893427D01*
X107873932Y-121024134D01*
X107795936Y-121176880D01*
X107794196Y-121183989D01*
X107794195Y-121183993D01*
X107769681Y-121284173D01*
X107755171Y-121343472D01*
X107754500Y-121354288D01*
X107754500Y-122207946D01*
X106685500Y-122207946D01*
X106685500Y-120880252D01*
X106677902Y-120842053D01*
X106676288Y-120833939D01*
X106676288Y-120833938D01*
X106673867Y-120821769D01*
X106629552Y-120755448D01*
X106563231Y-120711133D01*
X106551062Y-120708712D01*
X106551061Y-120708712D01*
X106510816Y-120700707D01*
X106504748Y-120699500D01*
X105395252Y-120699500D01*
X105389184Y-120700707D01*
X105348939Y-120708712D01*
X105348938Y-120708712D01*
X105336769Y-120711133D01*
X105270448Y-120755448D01*
X105226133Y-120821769D01*
X105223712Y-120833938D01*
X105223712Y-120833939D01*
X105222098Y-120842053D01*
X105214500Y-120880252D01*
X105214500Y-122719748D01*
X100200500Y-122719748D01*
X100200500Y-118500262D01*
X101244520Y-118500262D01*
X101261759Y-118705553D01*
X101318544Y-118903586D01*
X101321359Y-118909063D01*
X101321360Y-118909066D01*
X101342247Y-118949707D01*
X101412712Y-119086818D01*
X101540677Y-119248270D01*
X101545370Y-119252264D01*
X101545371Y-119252265D01*
X101679863Y-119366726D01*
X101697564Y-119381791D01*
X101877398Y-119482297D01*
X101950964Y-119506200D01*
X102067471Y-119544056D01*
X102067475Y-119544057D01*
X102073329Y-119545959D01*
X102277894Y-119570351D01*
X102284029Y-119569879D01*
X102284031Y-119569879D01*
X102340039Y-119565569D01*
X102483300Y-119554546D01*
X102489230Y-119552890D01*
X102489232Y-119552890D01*
X102613104Y-119518304D01*
X102681725Y-119499145D01*
X102687214Y-119496372D01*
X102687220Y-119496370D01*
X102860116Y-119409033D01*
X102865610Y-119406258D01*
X103027951Y-119279424D01*
X103083273Y-119215333D01*
X103158540Y-119128134D01*
X103158540Y-119128133D01*
X103162564Y-119123472D01*
X103183387Y-119086818D01*
X103261276Y-118949707D01*
X103264323Y-118944344D01*
X103329351Y-118748863D01*
X103355171Y-118544474D01*
X103355583Y-118515000D01*
X103335480Y-118309970D01*
X103275935Y-118112749D01*
X103179218Y-117930849D01*
X103105859Y-117840902D01*
X103052906Y-117775975D01*
X103052903Y-117775972D01*
X103049011Y-117771200D01*
X103006400Y-117735949D01*
X102957218Y-117695262D01*
X137394520Y-117695262D01*
X137411759Y-117900553D01*
X137468544Y-118098586D01*
X137471359Y-118104063D01*
X137471360Y-118104066D01*
X137492247Y-118144707D01*
X137562712Y-118281818D01*
X137690677Y-118443270D01*
X137695370Y-118447264D01*
X137695371Y-118447265D01*
X137809592Y-118544474D01*
X137847564Y-118576791D01*
X138027398Y-118677297D01*
X138095458Y-118699411D01*
X138217471Y-118739056D01*
X138217475Y-118739057D01*
X138223329Y-118740959D01*
X138427894Y-118765351D01*
X138434029Y-118764879D01*
X138434031Y-118764879D01*
X138490039Y-118760569D01*
X138633300Y-118749546D01*
X138639230Y-118747890D01*
X138639232Y-118747890D01*
X138825797Y-118695800D01*
X138825796Y-118695800D01*
X138831725Y-118694145D01*
X138837214Y-118691372D01*
X138837220Y-118691370D01*
X139010116Y-118604033D01*
X139015610Y-118601258D01*
X139177951Y-118474424D01*
X139312564Y-118318472D01*
X139333387Y-118281818D01*
X139411276Y-118144707D01*
X139414323Y-118139344D01*
X139479351Y-117943863D01*
X139505171Y-117739474D01*
X139505583Y-117710000D01*
X139485480Y-117504970D01*
X139425935Y-117307749D01*
X139329218Y-117125849D01*
X139239862Y-117016288D01*
X139202906Y-116970975D01*
X139202903Y-116970972D01*
X139199011Y-116966200D01*
X139108184Y-116891061D01*
X139045025Y-116838811D01*
X139045021Y-116838809D01*
X139040275Y-116834882D01*
X138859055Y-116736897D01*
X138662254Y-116675977D01*
X138656129Y-116675333D01*
X138656128Y-116675333D01*
X138463498Y-116655087D01*
X138463496Y-116655087D01*
X138457369Y-116654443D01*
X138370529Y-116662346D01*
X138258342Y-116672555D01*
X138258339Y-116672556D01*
X138252203Y-116673114D01*
X138054572Y-116731280D01*
X137872002Y-116826726D01*
X137867201Y-116830586D01*
X137867198Y-116830588D01*
X137764018Y-116913547D01*
X137711447Y-116955815D01*
X137579024Y-117113630D01*
X137576056Y-117119028D01*
X137576053Y-117119033D01*
X137569315Y-117131290D01*
X137479776Y-117294162D01*
X137417484Y-117490532D01*
X137416798Y-117496649D01*
X137416797Y-117496653D01*
X137400732Y-117639882D01*
X137394520Y-117695262D01*
X102957218Y-117695262D01*
X102895025Y-117643811D01*
X102895021Y-117643809D01*
X102890275Y-117639882D01*
X102709055Y-117541897D01*
X102512254Y-117480977D01*
X102506129Y-117480333D01*
X102506128Y-117480333D01*
X102313498Y-117460087D01*
X102313496Y-117460087D01*
X102307369Y-117459443D01*
X102220529Y-117467346D01*
X102108342Y-117477555D01*
X102108339Y-117477556D01*
X102102203Y-117478114D01*
X101904572Y-117536280D01*
X101722002Y-117631726D01*
X101717201Y-117635586D01*
X101717198Y-117635588D01*
X101635337Y-117701406D01*
X101561447Y-117760815D01*
X101429024Y-117918630D01*
X101426056Y-117924028D01*
X101426053Y-117924033D01*
X101333349Y-118092662D01*
X101329776Y-118099162D01*
X101267484Y-118295532D01*
X101266798Y-118301649D01*
X101266797Y-118301653D01*
X101247941Y-118469766D01*
X101244520Y-118500262D01*
X100200500Y-118500262D01*
X100200500Y-116844748D01*
X101249500Y-116844748D01*
X101261133Y-116903231D01*
X101305448Y-116969552D01*
X101371769Y-117013867D01*
X101383938Y-117016288D01*
X101383939Y-117016288D01*
X101424184Y-117024293D01*
X101430252Y-117025500D01*
X103169748Y-117025500D01*
X103175816Y-117024293D01*
X103216061Y-117016288D01*
X103216062Y-117016288D01*
X103228231Y-117013867D01*
X103294552Y-116969552D01*
X103338867Y-116903231D01*
X103350500Y-116844748D01*
X103350500Y-115105252D01*
X103338867Y-115046769D01*
X103294552Y-114980448D01*
X103228231Y-114936133D01*
X103216062Y-114933712D01*
X103216061Y-114933712D01*
X103175816Y-114925707D01*
X103169748Y-114924500D01*
X101430252Y-114924500D01*
X101424184Y-114925707D01*
X101383939Y-114933712D01*
X101383938Y-114933712D01*
X101371769Y-114936133D01*
X101305448Y-114980448D01*
X101261133Y-115046769D01*
X101249500Y-115105252D01*
X101249500Y-116844748D01*
X100200500Y-116844748D01*
X100200500Y-114850000D01*
X134944318Y-114850000D01*
X134945396Y-114858188D01*
X134960585Y-114973557D01*
X134964956Y-115006762D01*
X135025464Y-115152841D01*
X135121718Y-115278282D01*
X135247159Y-115374536D01*
X135393238Y-115435044D01*
X135550000Y-115455682D01*
X135558188Y-115454604D01*
X135698574Y-115436122D01*
X135706762Y-115435044D01*
X135852841Y-115374536D01*
X135978282Y-115278282D01*
X136074536Y-115152841D01*
X136135044Y-115006762D01*
X136139416Y-114973557D01*
X136154604Y-114858188D01*
X136155682Y-114850000D01*
X136135044Y-114693238D01*
X136074536Y-114547159D01*
X135978282Y-114421718D01*
X135852841Y-114325464D01*
X135706762Y-114264956D01*
X135550000Y-114244318D01*
X135393238Y-114264956D01*
X135247159Y-114325464D01*
X135121718Y-114421718D01*
X135025464Y-114547159D01*
X134964956Y-114693238D01*
X134944318Y-114850000D01*
X100200500Y-114850000D01*
X100200500Y-113460000D01*
X108895318Y-113460000D01*
X108896396Y-113468188D01*
X108912998Y-113594290D01*
X108915956Y-113616762D01*
X108976464Y-113762841D01*
X109072718Y-113888282D01*
X109198159Y-113984536D01*
X109344238Y-114045044D01*
X109501000Y-114065682D01*
X109509188Y-114064604D01*
X109649574Y-114046122D01*
X109657762Y-114045044D01*
X109803841Y-113984536D01*
X109929282Y-113888282D01*
X110025536Y-113762841D01*
X110086044Y-113616762D01*
X110089003Y-113594290D01*
X110105604Y-113468188D01*
X110106682Y-113460000D01*
X110086044Y-113303238D01*
X110025536Y-113157159D01*
X109929282Y-113031718D01*
X109803841Y-112935464D01*
X109657762Y-112874956D01*
X109617953Y-112869715D01*
X109509188Y-112855396D01*
X109501000Y-112854318D01*
X109492812Y-112855396D01*
X109384048Y-112869715D01*
X109344238Y-112874956D01*
X109198159Y-112935464D01*
X109072718Y-113031718D01*
X108976464Y-113157159D01*
X108915956Y-113303238D01*
X108895318Y-113460000D01*
X100200500Y-113460000D01*
X100200500Y-112374700D01*
X111282718Y-112374700D01*
X111303356Y-112531462D01*
X111363864Y-112677541D01*
X111460118Y-112802982D01*
X111585559Y-112899236D01*
X111731638Y-112959744D01*
X111888400Y-112980382D01*
X111896588Y-112979304D01*
X112036974Y-112960822D01*
X112045162Y-112959744D01*
X112191241Y-112899236D01*
X112316682Y-112802982D01*
X112412936Y-112677541D01*
X112438733Y-112615262D01*
X137394520Y-112615262D01*
X137395036Y-112621406D01*
X137410284Y-112802982D01*
X137411759Y-112820553D01*
X137413458Y-112826478D01*
X137446151Y-112940491D01*
X137468544Y-113018586D01*
X137471359Y-113024063D01*
X137471360Y-113024066D01*
X137543682Y-113164789D01*
X137562712Y-113201818D01*
X137690677Y-113363270D01*
X137695370Y-113367264D01*
X137695371Y-113367265D01*
X137813956Y-113468188D01*
X137847564Y-113496791D01*
X138027398Y-113597297D01*
X138087305Y-113616762D01*
X138217471Y-113659056D01*
X138217475Y-113659057D01*
X138223329Y-113660959D01*
X138427894Y-113685351D01*
X138434029Y-113684879D01*
X138434031Y-113684879D01*
X138490039Y-113680569D01*
X138633300Y-113669546D01*
X138639230Y-113667890D01*
X138639232Y-113667890D01*
X138825797Y-113615800D01*
X138825796Y-113615800D01*
X138831725Y-113614145D01*
X138837214Y-113611372D01*
X138837220Y-113611370D01*
X139010116Y-113524033D01*
X139015610Y-113521258D01*
X139177951Y-113394424D01*
X139249593Y-113311426D01*
X139308540Y-113243134D01*
X139308540Y-113243133D01*
X139312564Y-113238472D01*
X139333387Y-113201818D01*
X139411276Y-113064707D01*
X139414323Y-113059344D01*
X139479351Y-112863863D01*
X139505171Y-112659474D01*
X139505583Y-112630000D01*
X139485480Y-112424970D01*
X139425935Y-112227749D01*
X139329218Y-112045849D01*
X139244027Y-111941395D01*
X139202906Y-111890975D01*
X139202903Y-111890972D01*
X139199011Y-111886200D01*
X139155451Y-111850164D01*
X139045025Y-111758811D01*
X139045021Y-111758809D01*
X139040275Y-111754882D01*
X138859055Y-111656897D01*
X138662254Y-111595977D01*
X138656129Y-111595333D01*
X138656128Y-111595333D01*
X138463498Y-111575087D01*
X138463496Y-111575087D01*
X138457369Y-111574443D01*
X138370529Y-111582346D01*
X138258342Y-111592555D01*
X138258339Y-111592556D01*
X138252203Y-111593114D01*
X138054572Y-111651280D01*
X137872002Y-111746726D01*
X137867201Y-111750586D01*
X137867198Y-111750588D01*
X137737098Y-111855191D01*
X137711447Y-111875815D01*
X137579024Y-112033630D01*
X137576056Y-112039028D01*
X137576053Y-112039033D01*
X137482743Y-112208765D01*
X137479776Y-112214162D01*
X137417484Y-112410532D01*
X137416798Y-112416649D01*
X137416797Y-112416653D01*
X137403064Y-112539091D01*
X137394520Y-112615262D01*
X112438733Y-112615262D01*
X112473444Y-112531462D01*
X112494082Y-112374700D01*
X112473444Y-112217938D01*
X112412936Y-112071859D01*
X112316682Y-111946418D01*
X112191241Y-111850164D01*
X112045162Y-111789656D01*
X111888400Y-111769018D01*
X111731638Y-111789656D01*
X111585559Y-111850164D01*
X111460118Y-111946418D01*
X111363864Y-112071859D01*
X111303356Y-112217938D01*
X111282718Y-112374700D01*
X100200500Y-112374700D01*
X100200500Y-110687000D01*
X107139318Y-110687000D01*
X107159956Y-110843762D01*
X107220464Y-110989841D01*
X107316718Y-111115282D01*
X107442159Y-111211536D01*
X107588238Y-111272044D01*
X107745000Y-111292682D01*
X107753188Y-111291604D01*
X107893574Y-111273122D01*
X107901762Y-111272044D01*
X108047841Y-111211536D01*
X108173282Y-111115282D01*
X108269536Y-110989841D01*
X108282001Y-110959748D01*
X137399500Y-110959748D01*
X137411133Y-111018231D01*
X137455448Y-111084552D01*
X137521769Y-111128867D01*
X137533938Y-111131288D01*
X137533939Y-111131288D01*
X137574184Y-111139293D01*
X137580252Y-111140500D01*
X139319748Y-111140500D01*
X139325816Y-111139293D01*
X139366061Y-111131288D01*
X139366062Y-111131288D01*
X139378231Y-111128867D01*
X139444552Y-111084552D01*
X139488867Y-111018231D01*
X139500500Y-110959748D01*
X139500500Y-109220252D01*
X139488867Y-109161769D01*
X139444552Y-109095448D01*
X139378231Y-109051133D01*
X139366062Y-109048712D01*
X139366061Y-109048712D01*
X139325816Y-109040707D01*
X139319748Y-109039500D01*
X137580252Y-109039500D01*
X137574184Y-109040707D01*
X137533939Y-109048712D01*
X137533938Y-109048712D01*
X137521769Y-109051133D01*
X137455448Y-109095448D01*
X137411133Y-109161769D01*
X137399500Y-109220252D01*
X137399500Y-110959748D01*
X108282001Y-110959748D01*
X108330044Y-110843762D01*
X108350682Y-110687000D01*
X108330044Y-110530238D01*
X108269536Y-110384159D01*
X108189612Y-110280000D01*
X109682318Y-110280000D01*
X109702956Y-110436762D01*
X109763464Y-110582841D01*
X109859718Y-110708282D01*
X109985159Y-110804536D01*
X110131238Y-110865044D01*
X110288000Y-110885682D01*
X110296188Y-110884604D01*
X110436574Y-110866122D01*
X110444762Y-110865044D01*
X110590841Y-110804536D01*
X110716282Y-110708282D01*
X110812536Y-110582841D01*
X110873044Y-110436762D01*
X110893682Y-110280000D01*
X110873044Y-110123238D01*
X110812536Y-109977159D01*
X110716282Y-109851718D01*
X110590841Y-109755464D01*
X110444762Y-109694956D01*
X110288000Y-109674318D01*
X110131238Y-109694956D01*
X109985159Y-109755464D01*
X109859718Y-109851718D01*
X109763464Y-109977159D01*
X109702956Y-110123238D01*
X109682318Y-110280000D01*
X108189612Y-110280000D01*
X108173282Y-110258718D01*
X108047841Y-110162464D01*
X107901762Y-110101956D01*
X107745000Y-110081318D01*
X107588238Y-110101956D01*
X107442159Y-110162464D01*
X107316718Y-110258718D01*
X107220464Y-110384159D01*
X107159956Y-110530238D01*
X107139318Y-110687000D01*
X100200500Y-110687000D01*
X100200500Y-107385262D01*
X110409520Y-107385262D01*
X110426759Y-107590553D01*
X110483544Y-107788586D01*
X110486359Y-107794063D01*
X110486360Y-107794066D01*
X110507247Y-107834707D01*
X110577712Y-107971818D01*
X110705677Y-108133270D01*
X110862564Y-108266791D01*
X111042398Y-108367297D01*
X111137238Y-108398113D01*
X111232471Y-108429056D01*
X111232475Y-108429057D01*
X111238329Y-108430959D01*
X111442894Y-108455351D01*
X111449029Y-108454879D01*
X111449031Y-108454879D01*
X111505039Y-108450569D01*
X111648300Y-108439546D01*
X111654230Y-108437890D01*
X111654232Y-108437890D01*
X111840797Y-108385800D01*
X111840796Y-108385800D01*
X111846725Y-108384145D01*
X111852214Y-108381372D01*
X111852220Y-108381370D01*
X112025116Y-108294033D01*
X112030610Y-108291258D01*
X112192951Y-108164424D01*
X112327564Y-108008472D01*
X112348387Y-107971818D01*
X112426276Y-107834707D01*
X112429323Y-107829344D01*
X112494351Y-107633863D01*
X112520171Y-107429474D01*
X112520583Y-107400000D01*
X112519138Y-107385262D01*
X112949520Y-107385262D01*
X112966759Y-107590553D01*
X113023544Y-107788586D01*
X113026359Y-107794063D01*
X113026360Y-107794066D01*
X113047247Y-107834707D01*
X113117712Y-107971818D01*
X113245677Y-108133270D01*
X113402564Y-108266791D01*
X113582398Y-108367297D01*
X113677238Y-108398113D01*
X113772471Y-108429056D01*
X113772475Y-108429057D01*
X113778329Y-108430959D01*
X113982894Y-108455351D01*
X113989029Y-108454879D01*
X113989031Y-108454879D01*
X114045039Y-108450569D01*
X114188300Y-108439546D01*
X114194230Y-108437890D01*
X114194232Y-108437890D01*
X114380797Y-108385800D01*
X114380796Y-108385800D01*
X114386725Y-108384145D01*
X114392214Y-108381372D01*
X114392220Y-108381370D01*
X114565116Y-108294033D01*
X114570610Y-108291258D01*
X114732951Y-108164424D01*
X114867564Y-108008472D01*
X114888387Y-107971818D01*
X114966276Y-107834707D01*
X114969323Y-107829344D01*
X115034351Y-107633863D01*
X115060171Y-107429474D01*
X115060583Y-107400000D01*
X115059138Y-107385262D01*
X115489520Y-107385262D01*
X115506759Y-107590553D01*
X115563544Y-107788586D01*
X115566359Y-107794063D01*
X115566360Y-107794066D01*
X115587247Y-107834707D01*
X115657712Y-107971818D01*
X115785677Y-108133270D01*
X115942564Y-108266791D01*
X116122398Y-108367297D01*
X116217238Y-108398113D01*
X116312471Y-108429056D01*
X116312475Y-108429057D01*
X116318329Y-108430959D01*
X116522894Y-108455351D01*
X116529029Y-108454879D01*
X116529031Y-108454879D01*
X116585039Y-108450569D01*
X116728300Y-108439546D01*
X116734230Y-108437890D01*
X116734232Y-108437890D01*
X116920797Y-108385800D01*
X116920796Y-108385800D01*
X116926725Y-108384145D01*
X116932214Y-108381372D01*
X116932220Y-108381370D01*
X117105116Y-108294033D01*
X117110610Y-108291258D01*
X117272951Y-108164424D01*
X117407564Y-108008472D01*
X117428387Y-107971818D01*
X117506276Y-107834707D01*
X117509323Y-107829344D01*
X117574351Y-107633863D01*
X117600171Y-107429474D01*
X117600583Y-107400000D01*
X117599138Y-107385262D01*
X118029520Y-107385262D01*
X118046759Y-107590553D01*
X118103544Y-107788586D01*
X118106359Y-107794063D01*
X118106360Y-107794066D01*
X118127247Y-107834707D01*
X118197712Y-107971818D01*
X118325677Y-108133270D01*
X118482564Y-108266791D01*
X118662398Y-108367297D01*
X118757238Y-108398113D01*
X118852471Y-108429056D01*
X118852475Y-108429057D01*
X118858329Y-108430959D01*
X119062894Y-108455351D01*
X119069029Y-108454879D01*
X119069031Y-108454879D01*
X119125039Y-108450569D01*
X119268300Y-108439546D01*
X119274230Y-108437890D01*
X119274232Y-108437890D01*
X119460797Y-108385800D01*
X119460796Y-108385800D01*
X119466725Y-108384145D01*
X119472214Y-108381372D01*
X119472220Y-108381370D01*
X119645116Y-108294033D01*
X119650610Y-108291258D01*
X119812951Y-108164424D01*
X119947564Y-108008472D01*
X119968387Y-107971818D01*
X120046276Y-107834707D01*
X120049323Y-107829344D01*
X120114351Y-107633863D01*
X120140171Y-107429474D01*
X120140583Y-107400000D01*
X120139138Y-107385262D01*
X120569520Y-107385262D01*
X120586759Y-107590553D01*
X120643544Y-107788586D01*
X120646359Y-107794063D01*
X120646360Y-107794066D01*
X120667247Y-107834707D01*
X120737712Y-107971818D01*
X120865677Y-108133270D01*
X121022564Y-108266791D01*
X121202398Y-108367297D01*
X121297238Y-108398113D01*
X121392471Y-108429056D01*
X121392475Y-108429057D01*
X121398329Y-108430959D01*
X121602894Y-108455351D01*
X121609029Y-108454879D01*
X121609031Y-108454879D01*
X121665039Y-108450569D01*
X121808300Y-108439546D01*
X121814230Y-108437890D01*
X121814232Y-108437890D01*
X122000797Y-108385800D01*
X122000796Y-108385800D01*
X122006725Y-108384145D01*
X122012214Y-108381372D01*
X122012220Y-108381370D01*
X122185116Y-108294033D01*
X122190610Y-108291258D01*
X122352951Y-108164424D01*
X122487564Y-108008472D01*
X122508387Y-107971818D01*
X122586276Y-107834707D01*
X122589323Y-107829344D01*
X122654351Y-107633863D01*
X122680171Y-107429474D01*
X122680583Y-107400000D01*
X122679138Y-107385262D01*
X123109520Y-107385262D01*
X123126759Y-107590553D01*
X123183544Y-107788586D01*
X123186359Y-107794063D01*
X123186360Y-107794066D01*
X123207247Y-107834707D01*
X123277712Y-107971818D01*
X123405677Y-108133270D01*
X123562564Y-108266791D01*
X123742398Y-108367297D01*
X123837238Y-108398113D01*
X123932471Y-108429056D01*
X123932475Y-108429057D01*
X123938329Y-108430959D01*
X124142894Y-108455351D01*
X124149029Y-108454879D01*
X124149031Y-108454879D01*
X124205039Y-108450569D01*
X124348300Y-108439546D01*
X124354230Y-108437890D01*
X124354232Y-108437890D01*
X124540797Y-108385800D01*
X124540796Y-108385800D01*
X124546725Y-108384145D01*
X124552214Y-108381372D01*
X124552220Y-108381370D01*
X124725116Y-108294033D01*
X124730610Y-108291258D01*
X124892951Y-108164424D01*
X125027564Y-108008472D01*
X125048387Y-107971818D01*
X125126276Y-107834707D01*
X125129323Y-107829344D01*
X125194351Y-107633863D01*
X125220171Y-107429474D01*
X125220583Y-107400000D01*
X125219138Y-107385262D01*
X125649520Y-107385262D01*
X125666759Y-107590553D01*
X125723544Y-107788586D01*
X125726359Y-107794063D01*
X125726360Y-107794066D01*
X125747247Y-107834707D01*
X125817712Y-107971818D01*
X125945677Y-108133270D01*
X126102564Y-108266791D01*
X126282398Y-108367297D01*
X126377238Y-108398113D01*
X126472471Y-108429056D01*
X126472475Y-108429057D01*
X126478329Y-108430959D01*
X126682894Y-108455351D01*
X126689029Y-108454879D01*
X126689031Y-108454879D01*
X126745039Y-108450569D01*
X126888300Y-108439546D01*
X126894230Y-108437890D01*
X126894232Y-108437890D01*
X127080797Y-108385800D01*
X127080796Y-108385800D01*
X127086725Y-108384145D01*
X127092214Y-108381372D01*
X127092220Y-108381370D01*
X127265116Y-108294033D01*
X127270610Y-108291258D01*
X127432951Y-108164424D01*
X127567564Y-108008472D01*
X127588387Y-107971818D01*
X127666276Y-107834707D01*
X127669323Y-107829344D01*
X127734351Y-107633863D01*
X127760171Y-107429474D01*
X127760583Y-107400000D01*
X127759138Y-107385262D01*
X128189520Y-107385262D01*
X128206759Y-107590553D01*
X128263544Y-107788586D01*
X128266359Y-107794063D01*
X128266360Y-107794066D01*
X128287247Y-107834707D01*
X128357712Y-107971818D01*
X128485677Y-108133270D01*
X128642564Y-108266791D01*
X128822398Y-108367297D01*
X128917238Y-108398113D01*
X129012471Y-108429056D01*
X129012475Y-108429057D01*
X129018329Y-108430959D01*
X129222894Y-108455351D01*
X129229029Y-108454879D01*
X129229031Y-108454879D01*
X129285039Y-108450569D01*
X129428300Y-108439546D01*
X129434230Y-108437890D01*
X129434232Y-108437890D01*
X129620797Y-108385800D01*
X129620796Y-108385800D01*
X129626725Y-108384145D01*
X129632214Y-108381372D01*
X129632220Y-108381370D01*
X129805116Y-108294033D01*
X129810610Y-108291258D01*
X129972951Y-108164424D01*
X130107564Y-108008472D01*
X130128387Y-107971818D01*
X130206276Y-107834707D01*
X130209323Y-107829344D01*
X130274351Y-107633863D01*
X130300171Y-107429474D01*
X130300583Y-107400000D01*
X130299138Y-107385262D01*
X130729520Y-107385262D01*
X130746759Y-107590553D01*
X130803544Y-107788586D01*
X130806359Y-107794063D01*
X130806360Y-107794066D01*
X130827247Y-107834707D01*
X130897712Y-107971818D01*
X131025677Y-108133270D01*
X131182564Y-108266791D01*
X131362398Y-108367297D01*
X131457238Y-108398113D01*
X131552471Y-108429056D01*
X131552475Y-108429057D01*
X131558329Y-108430959D01*
X131762894Y-108455351D01*
X131769029Y-108454879D01*
X131769031Y-108454879D01*
X131825039Y-108450569D01*
X131968300Y-108439546D01*
X131974230Y-108437890D01*
X131974232Y-108437890D01*
X132160797Y-108385800D01*
X132160796Y-108385800D01*
X132166725Y-108384145D01*
X132172214Y-108381372D01*
X132172220Y-108381370D01*
X132345116Y-108294033D01*
X132350610Y-108291258D01*
X132512951Y-108164424D01*
X132647564Y-108008472D01*
X132668387Y-107971818D01*
X132746276Y-107834707D01*
X132749323Y-107829344D01*
X132814351Y-107633863D01*
X132840171Y-107429474D01*
X132840583Y-107400000D01*
X132820480Y-107194970D01*
X132760935Y-106997749D01*
X132664218Y-106815849D01*
X132590859Y-106725902D01*
X132537906Y-106660975D01*
X132537903Y-106660972D01*
X132534011Y-106656200D01*
X132516786Y-106641950D01*
X132380025Y-106528811D01*
X132380021Y-106528809D01*
X132375275Y-106524882D01*
X132194055Y-106426897D01*
X131997254Y-106365977D01*
X131991129Y-106365333D01*
X131991128Y-106365333D01*
X131798498Y-106345087D01*
X131798496Y-106345087D01*
X131792369Y-106344443D01*
X131705529Y-106352346D01*
X131593342Y-106362555D01*
X131593339Y-106362556D01*
X131587203Y-106363114D01*
X131389572Y-106421280D01*
X131207002Y-106516726D01*
X131202201Y-106520586D01*
X131202198Y-106520588D01*
X131191971Y-106528811D01*
X131046447Y-106645815D01*
X130914024Y-106803630D01*
X130911056Y-106809028D01*
X130911053Y-106809033D01*
X130904315Y-106821290D01*
X130814776Y-106984162D01*
X130752484Y-107180532D01*
X130751798Y-107186649D01*
X130751797Y-107186653D01*
X130730207Y-107379137D01*
X130729520Y-107385262D01*
X130299138Y-107385262D01*
X130280480Y-107194970D01*
X130220935Y-106997749D01*
X130124218Y-106815849D01*
X130050859Y-106725902D01*
X129997906Y-106660975D01*
X129997903Y-106660972D01*
X129994011Y-106656200D01*
X129976786Y-106641950D01*
X129840025Y-106528811D01*
X129840021Y-106528809D01*
X129835275Y-106524882D01*
X129654055Y-106426897D01*
X129457254Y-106365977D01*
X129451129Y-106365333D01*
X129451128Y-106365333D01*
X129258498Y-106345087D01*
X129258496Y-106345087D01*
X129252369Y-106344443D01*
X129165529Y-106352346D01*
X129053342Y-106362555D01*
X129053339Y-106362556D01*
X129047203Y-106363114D01*
X128849572Y-106421280D01*
X128667002Y-106516726D01*
X128662201Y-106520586D01*
X128662198Y-106520588D01*
X128651971Y-106528811D01*
X128506447Y-106645815D01*
X128374024Y-106803630D01*
X128371056Y-106809028D01*
X128371053Y-106809033D01*
X128364315Y-106821290D01*
X128274776Y-106984162D01*
X128212484Y-107180532D01*
X128211798Y-107186649D01*
X128211797Y-107186653D01*
X128190207Y-107379137D01*
X128189520Y-107385262D01*
X127759138Y-107385262D01*
X127740480Y-107194970D01*
X127680935Y-106997749D01*
X127584218Y-106815849D01*
X127510859Y-106725902D01*
X127457906Y-106660975D01*
X127457903Y-106660972D01*
X127454011Y-106656200D01*
X127436786Y-106641950D01*
X127300025Y-106528811D01*
X127300021Y-106528809D01*
X127295275Y-106524882D01*
X127114055Y-106426897D01*
X126917254Y-106365977D01*
X126911129Y-106365333D01*
X126911128Y-106365333D01*
X126718498Y-106345087D01*
X126718496Y-106345087D01*
X126712369Y-106344443D01*
X126625529Y-106352346D01*
X126513342Y-106362555D01*
X126513339Y-106362556D01*
X126507203Y-106363114D01*
X126309572Y-106421280D01*
X126127002Y-106516726D01*
X126122201Y-106520586D01*
X126122198Y-106520588D01*
X126111971Y-106528811D01*
X125966447Y-106645815D01*
X125834024Y-106803630D01*
X125831056Y-106809028D01*
X125831053Y-106809033D01*
X125824315Y-106821290D01*
X125734776Y-106984162D01*
X125672484Y-107180532D01*
X125671798Y-107186649D01*
X125671797Y-107186653D01*
X125650207Y-107379137D01*
X125649520Y-107385262D01*
X125219138Y-107385262D01*
X125200480Y-107194970D01*
X125140935Y-106997749D01*
X125044218Y-106815849D01*
X124970859Y-106725902D01*
X124917906Y-106660975D01*
X124917903Y-106660972D01*
X124914011Y-106656200D01*
X124896786Y-106641950D01*
X124760025Y-106528811D01*
X124760021Y-106528809D01*
X124755275Y-106524882D01*
X124574055Y-106426897D01*
X124377254Y-106365977D01*
X124371129Y-106365333D01*
X124371128Y-106365333D01*
X124178498Y-106345087D01*
X124178496Y-106345087D01*
X124172369Y-106344443D01*
X124085529Y-106352346D01*
X123973342Y-106362555D01*
X123973339Y-106362556D01*
X123967203Y-106363114D01*
X123769572Y-106421280D01*
X123587002Y-106516726D01*
X123582201Y-106520586D01*
X123582198Y-106520588D01*
X123571971Y-106528811D01*
X123426447Y-106645815D01*
X123294024Y-106803630D01*
X123291056Y-106809028D01*
X123291053Y-106809033D01*
X123284315Y-106821290D01*
X123194776Y-106984162D01*
X123132484Y-107180532D01*
X123131798Y-107186649D01*
X123131797Y-107186653D01*
X123110207Y-107379137D01*
X123109520Y-107385262D01*
X122679138Y-107385262D01*
X122660480Y-107194970D01*
X122600935Y-106997749D01*
X122504218Y-106815849D01*
X122430859Y-106725902D01*
X122377906Y-106660975D01*
X122377903Y-106660972D01*
X122374011Y-106656200D01*
X122356786Y-106641950D01*
X122220025Y-106528811D01*
X122220021Y-106528809D01*
X122215275Y-106524882D01*
X122034055Y-106426897D01*
X121837254Y-106365977D01*
X121831129Y-106365333D01*
X121831128Y-106365333D01*
X121638498Y-106345087D01*
X121638496Y-106345087D01*
X121632369Y-106344443D01*
X121545529Y-106352346D01*
X121433342Y-106362555D01*
X121433339Y-106362556D01*
X121427203Y-106363114D01*
X121229572Y-106421280D01*
X121047002Y-106516726D01*
X121042201Y-106520586D01*
X121042198Y-106520588D01*
X121031971Y-106528811D01*
X120886447Y-106645815D01*
X120754024Y-106803630D01*
X120751056Y-106809028D01*
X120751053Y-106809033D01*
X120744315Y-106821290D01*
X120654776Y-106984162D01*
X120592484Y-107180532D01*
X120591798Y-107186649D01*
X120591797Y-107186653D01*
X120570207Y-107379137D01*
X120569520Y-107385262D01*
X120139138Y-107385262D01*
X120120480Y-107194970D01*
X120060935Y-106997749D01*
X119964218Y-106815849D01*
X119890859Y-106725902D01*
X119837906Y-106660975D01*
X119837903Y-106660972D01*
X119834011Y-106656200D01*
X119816786Y-106641950D01*
X119680025Y-106528811D01*
X119680021Y-106528809D01*
X119675275Y-106524882D01*
X119494055Y-106426897D01*
X119297254Y-106365977D01*
X119291129Y-106365333D01*
X119291128Y-106365333D01*
X119098498Y-106345087D01*
X119098496Y-106345087D01*
X119092369Y-106344443D01*
X119005529Y-106352346D01*
X118893342Y-106362555D01*
X118893339Y-106362556D01*
X118887203Y-106363114D01*
X118689572Y-106421280D01*
X118507002Y-106516726D01*
X118502201Y-106520586D01*
X118502198Y-106520588D01*
X118491971Y-106528811D01*
X118346447Y-106645815D01*
X118214024Y-106803630D01*
X118211056Y-106809028D01*
X118211053Y-106809033D01*
X118204315Y-106821290D01*
X118114776Y-106984162D01*
X118052484Y-107180532D01*
X118051798Y-107186649D01*
X118051797Y-107186653D01*
X118030207Y-107379137D01*
X118029520Y-107385262D01*
X117599138Y-107385262D01*
X117580480Y-107194970D01*
X117520935Y-106997749D01*
X117424218Y-106815849D01*
X117350859Y-106725902D01*
X117297906Y-106660975D01*
X117297903Y-106660972D01*
X117294011Y-106656200D01*
X117276786Y-106641950D01*
X117140025Y-106528811D01*
X117140021Y-106528809D01*
X117135275Y-106524882D01*
X116954055Y-106426897D01*
X116757254Y-106365977D01*
X116751129Y-106365333D01*
X116751128Y-106365333D01*
X116558498Y-106345087D01*
X116558496Y-106345087D01*
X116552369Y-106344443D01*
X116465529Y-106352346D01*
X116353342Y-106362555D01*
X116353339Y-106362556D01*
X116347203Y-106363114D01*
X116149572Y-106421280D01*
X115967002Y-106516726D01*
X115962201Y-106520586D01*
X115962198Y-106520588D01*
X115951971Y-106528811D01*
X115806447Y-106645815D01*
X115674024Y-106803630D01*
X115671056Y-106809028D01*
X115671053Y-106809033D01*
X115664315Y-106821290D01*
X115574776Y-106984162D01*
X115512484Y-107180532D01*
X115511798Y-107186649D01*
X115511797Y-107186653D01*
X115490207Y-107379137D01*
X115489520Y-107385262D01*
X115059138Y-107385262D01*
X115040480Y-107194970D01*
X114980935Y-106997749D01*
X114884218Y-106815849D01*
X114810859Y-106725902D01*
X114757906Y-106660975D01*
X114757903Y-106660972D01*
X114754011Y-106656200D01*
X114736786Y-106641950D01*
X114600025Y-106528811D01*
X114600021Y-106528809D01*
X114595275Y-106524882D01*
X114414055Y-106426897D01*
X114217254Y-106365977D01*
X114211129Y-106365333D01*
X114211128Y-106365333D01*
X114018498Y-106345087D01*
X114018496Y-106345087D01*
X114012369Y-106344443D01*
X113925529Y-106352346D01*
X113813342Y-106362555D01*
X113813339Y-106362556D01*
X113807203Y-106363114D01*
X113609572Y-106421280D01*
X113427002Y-106516726D01*
X113422201Y-106520586D01*
X113422198Y-106520588D01*
X113411971Y-106528811D01*
X113266447Y-106645815D01*
X113134024Y-106803630D01*
X113131056Y-106809028D01*
X113131053Y-106809033D01*
X113124315Y-106821290D01*
X113034776Y-106984162D01*
X112972484Y-107180532D01*
X112971798Y-107186649D01*
X112971797Y-107186653D01*
X112950207Y-107379137D01*
X112949520Y-107385262D01*
X112519138Y-107385262D01*
X112500480Y-107194970D01*
X112440935Y-106997749D01*
X112344218Y-106815849D01*
X112270859Y-106725902D01*
X112217906Y-106660975D01*
X112217903Y-106660972D01*
X112214011Y-106656200D01*
X112196786Y-106641950D01*
X112060025Y-106528811D01*
X112060021Y-106528809D01*
X112055275Y-106524882D01*
X111874055Y-106426897D01*
X111677254Y-106365977D01*
X111671129Y-106365333D01*
X111671128Y-106365333D01*
X111478498Y-106345087D01*
X111478496Y-106345087D01*
X111472369Y-106344443D01*
X111385529Y-106352346D01*
X111273342Y-106362555D01*
X111273339Y-106362556D01*
X111267203Y-106363114D01*
X111069572Y-106421280D01*
X110887002Y-106516726D01*
X110882201Y-106520586D01*
X110882198Y-106520588D01*
X110871971Y-106528811D01*
X110726447Y-106645815D01*
X110594024Y-106803630D01*
X110591056Y-106809028D01*
X110591053Y-106809033D01*
X110584315Y-106821290D01*
X110494776Y-106984162D01*
X110432484Y-107180532D01*
X110431798Y-107186649D01*
X110431797Y-107186653D01*
X110410207Y-107379137D01*
X110409520Y-107385262D01*
X100200500Y-107385262D01*
X100200500Y-103243000D01*
X116080318Y-103243000D01*
X116100956Y-103399762D01*
X116161464Y-103545841D01*
X116257718Y-103671282D01*
X116383159Y-103767536D01*
X116529238Y-103828044D01*
X116686000Y-103848682D01*
X116694188Y-103847604D01*
X116834574Y-103829122D01*
X116842762Y-103828044D01*
X116988841Y-103767536D01*
X117114282Y-103671282D01*
X117210536Y-103545841D01*
X117271044Y-103399762D01*
X117291682Y-103243000D01*
X117271044Y-103086238D01*
X117210536Y-102940159D01*
X117114282Y-102814718D01*
X116988841Y-102718464D01*
X116842762Y-102657956D01*
X116686000Y-102637318D01*
X116529238Y-102657956D01*
X116383159Y-102718464D01*
X116257718Y-102814718D01*
X116161464Y-102940159D01*
X116100956Y-103086238D01*
X116080318Y-103243000D01*
X100200500Y-103243000D01*
X100200500Y-102019126D01*
X133658041Y-102019126D01*
X133688435Y-102220097D01*
X133758619Y-102410852D01*
X133761979Y-102416272D01*
X133761980Y-102416273D01*
X133862363Y-102578176D01*
X133862366Y-102578180D01*
X133865726Y-102583599D01*
X133870112Y-102588237D01*
X133993262Y-102718464D01*
X134005381Y-102731280D01*
X134171879Y-102847863D01*
X134358419Y-102928586D01*
X134382458Y-102933608D01*
X134552644Y-102969162D01*
X134552649Y-102969163D01*
X134557380Y-102970151D01*
X134562262Y-102970407D01*
X134562371Y-102970413D01*
X134562387Y-102970413D01*
X134564039Y-102970500D01*
X134713300Y-102970500D01*
X134761293Y-102965625D01*
X134858368Y-102955765D01*
X134858370Y-102955765D01*
X134864716Y-102955120D01*
X135058672Y-102894338D01*
X135236444Y-102795797D01*
X135390771Y-102663523D01*
X135395090Y-102657956D01*
X135511439Y-102507958D01*
X135515348Y-102502919D01*
X135605087Y-102320545D01*
X135631252Y-102220097D01*
X135654712Y-102130034D01*
X135654712Y-102130031D01*
X135656322Y-102123852D01*
X135665135Y-101955682D01*
X135666625Y-101927256D01*
X135666625Y-101927252D01*
X135666959Y-101920874D01*
X135636565Y-101719903D01*
X135566381Y-101529148D01*
X135552501Y-101506762D01*
X135462637Y-101361824D01*
X135462634Y-101361820D01*
X135459274Y-101356401D01*
X135404590Y-101298574D01*
X135324008Y-101213361D01*
X135324007Y-101213360D01*
X135319619Y-101208720D01*
X135153121Y-101092137D01*
X134966581Y-101011414D01*
X134903511Y-100998238D01*
X134772356Y-100970838D01*
X134772351Y-100970837D01*
X134767620Y-100969849D01*
X134762738Y-100969593D01*
X134762629Y-100969587D01*
X134762613Y-100969587D01*
X134760961Y-100969500D01*
X134611700Y-100969500D01*
X134563707Y-100974375D01*
X134466632Y-100984235D01*
X134466630Y-100984235D01*
X134460284Y-100984880D01*
X134266328Y-101045662D01*
X134260739Y-101048760D01*
X134237211Y-101061802D01*
X134088556Y-101144203D01*
X134083708Y-101148359D01*
X134083707Y-101148359D01*
X134075959Y-101155000D01*
X133934229Y-101276477D01*
X133930322Y-101281514D01*
X133930320Y-101281516D01*
X133883550Y-101341812D01*
X133809652Y-101437081D01*
X133719913Y-101619455D01*
X133718304Y-101625633D01*
X133718303Y-101625635D01*
X133680247Y-101771736D01*
X133668678Y-101816148D01*
X133658041Y-102019126D01*
X100200500Y-102019126D01*
X100200500Y-101155000D01*
X106464318Y-101155000D01*
X106465396Y-101163188D01*
X106483782Y-101302841D01*
X106484956Y-101311762D01*
X106545464Y-101457841D01*
X106641718Y-101583282D01*
X106648264Y-101588305D01*
X106669505Y-101604604D01*
X106767159Y-101679536D01*
X106913238Y-101740044D01*
X107070000Y-101760682D01*
X107078188Y-101759604D01*
X107218574Y-101741122D01*
X107226762Y-101740044D01*
X107372841Y-101679536D01*
X107470495Y-101604604D01*
X107491736Y-101588305D01*
X107498282Y-101583282D01*
X107594536Y-101457841D01*
X107655044Y-101311762D01*
X107656219Y-101302841D01*
X107674604Y-101163188D01*
X107675682Y-101155000D01*
X107655276Y-101000000D01*
X110044318Y-101000000D01*
X110064956Y-101156762D01*
X110125464Y-101302841D01*
X110221718Y-101428282D01*
X110228264Y-101433305D01*
X110253724Y-101452841D01*
X110347159Y-101524536D01*
X110493238Y-101585044D01*
X110501426Y-101586122D01*
X110571619Y-101595363D01*
X110650000Y-101605682D01*
X110658188Y-101604604D01*
X110798574Y-101586122D01*
X110806762Y-101585044D01*
X110952841Y-101524536D01*
X111046276Y-101452841D01*
X111071736Y-101433305D01*
X111078282Y-101428282D01*
X111174536Y-101302841D01*
X111235044Y-101156762D01*
X111247454Y-101062500D01*
X113856818Y-101062500D01*
X113857896Y-101070688D01*
X113873026Y-101185609D01*
X113877456Y-101219262D01*
X113937964Y-101365341D01*
X114034218Y-101490782D01*
X114159659Y-101587036D01*
X114305738Y-101647544D01*
X114462500Y-101668182D01*
X114470688Y-101667104D01*
X114611074Y-101648622D01*
X114619262Y-101647544D01*
X114765341Y-101587036D01*
X114890782Y-101490782D01*
X114987036Y-101365341D01*
X115047544Y-101219262D01*
X115051975Y-101185609D01*
X115067104Y-101070688D01*
X115068182Y-101062500D01*
X115047544Y-100905738D01*
X114989911Y-100766600D01*
X117047018Y-100766600D01*
X117067656Y-100923362D01*
X117128164Y-101069441D01*
X117224418Y-101194882D01*
X117349859Y-101291136D01*
X117495938Y-101351644D01*
X117652700Y-101372282D01*
X117660888Y-101371204D01*
X117801274Y-101352722D01*
X117809462Y-101351644D01*
X117955541Y-101291136D01*
X118080982Y-101194882D01*
X118115421Y-101150000D01*
X125394318Y-101150000D01*
X125414956Y-101306762D01*
X125475464Y-101452841D01*
X125571718Y-101578282D01*
X125697159Y-101674536D01*
X125843238Y-101735044D01*
X126000000Y-101755682D01*
X126008188Y-101754604D01*
X126148574Y-101736122D01*
X126156762Y-101735044D01*
X126302841Y-101674536D01*
X126428282Y-101578282D01*
X126524536Y-101452841D01*
X126567134Y-101350000D01*
X128994318Y-101350000D01*
X129014956Y-101506762D01*
X129075464Y-101652841D01*
X129171718Y-101778282D01*
X129297159Y-101874536D01*
X129443238Y-101935044D01*
X129600000Y-101955682D01*
X129608188Y-101954604D01*
X129748574Y-101936122D01*
X129756762Y-101935044D01*
X129902841Y-101874536D01*
X130028282Y-101778282D01*
X130124536Y-101652841D01*
X130185044Y-101506762D01*
X130205682Y-101350000D01*
X130195363Y-101271619D01*
X130186122Y-101201426D01*
X130185044Y-101193238D01*
X130124536Y-101047159D01*
X130028282Y-100921718D01*
X129902841Y-100825464D01*
X129756762Y-100764956D01*
X129600000Y-100744318D01*
X129443238Y-100764956D01*
X129297159Y-100825464D01*
X129171718Y-100921718D01*
X129075464Y-101047159D01*
X129014956Y-101193238D01*
X129013878Y-101201426D01*
X129004637Y-101271619D01*
X128994318Y-101350000D01*
X126567134Y-101350000D01*
X126585044Y-101306762D01*
X126605682Y-101150000D01*
X126585044Y-100993238D01*
X126524536Y-100847159D01*
X126428282Y-100721718D01*
X126302841Y-100625464D01*
X126156762Y-100564956D01*
X126000000Y-100544318D01*
X125843238Y-100564956D01*
X125697159Y-100625464D01*
X125571718Y-100721718D01*
X125475464Y-100847159D01*
X125414956Y-100993238D01*
X125394318Y-101150000D01*
X118115421Y-101150000D01*
X118177236Y-101069441D01*
X118237744Y-100923362D01*
X118258382Y-100766600D01*
X118237744Y-100609838D01*
X118177236Y-100463759D01*
X118080982Y-100338318D01*
X117955541Y-100242064D01*
X117809462Y-100181556D01*
X117652700Y-100160918D01*
X117495938Y-100181556D01*
X117349859Y-100242064D01*
X117224418Y-100338318D01*
X117128164Y-100463759D01*
X117067656Y-100609838D01*
X117047018Y-100766600D01*
X114989911Y-100766600D01*
X114987036Y-100759659D01*
X114890782Y-100634218D01*
X114881772Y-100627304D01*
X114799113Y-100563878D01*
X114765341Y-100537964D01*
X114619262Y-100477456D01*
X114580129Y-100472304D01*
X114470688Y-100457896D01*
X114462500Y-100456818D01*
X114454312Y-100457896D01*
X114344872Y-100472304D01*
X114305738Y-100477456D01*
X114159659Y-100537964D01*
X114125887Y-100563878D01*
X114043229Y-100627304D01*
X114034218Y-100634218D01*
X113937964Y-100759659D01*
X113877456Y-100905738D01*
X113856818Y-101062500D01*
X111247454Y-101062500D01*
X111255682Y-101000000D01*
X111236565Y-100854789D01*
X111236122Y-100851426D01*
X111235044Y-100843238D01*
X111174536Y-100697159D01*
X111078282Y-100571718D01*
X110952841Y-100475464D01*
X110806762Y-100414956D01*
X110650000Y-100394318D01*
X110493238Y-100414956D01*
X110347159Y-100475464D01*
X110221718Y-100571718D01*
X110125464Y-100697159D01*
X110064956Y-100843238D01*
X110063878Y-100851426D01*
X110063435Y-100854789D01*
X110044318Y-101000000D01*
X107655276Y-101000000D01*
X107655044Y-100998238D01*
X107594536Y-100852159D01*
X107498282Y-100726718D01*
X107469704Y-100704789D01*
X107379392Y-100635491D01*
X107372841Y-100630464D01*
X107226762Y-100569956D01*
X107070000Y-100549318D01*
X106913238Y-100569956D01*
X106767159Y-100630464D01*
X106760608Y-100635491D01*
X106670297Y-100704789D01*
X106641718Y-100726718D01*
X106545464Y-100852159D01*
X106484956Y-100998238D01*
X106464318Y-101155000D01*
X100200500Y-101155000D01*
X100200500Y-98996073D01*
X113655591Y-98996073D01*
X113676229Y-99152835D01*
X113736737Y-99298914D01*
X113832991Y-99424355D01*
X113958432Y-99520609D01*
X114104511Y-99581117D01*
X114261273Y-99601755D01*
X114269461Y-99600677D01*
X114409847Y-99582195D01*
X114418035Y-99581117D01*
X114564114Y-99520609D01*
X114689555Y-99424355D01*
X114785809Y-99298914D01*
X114846317Y-99152835D01*
X114866955Y-98996073D01*
X114846317Y-98839311D01*
X114785809Y-98693232D01*
X114689555Y-98567791D01*
X114601208Y-98500000D01*
X126094318Y-98500000D01*
X126114956Y-98656762D01*
X126175464Y-98802841D01*
X126271718Y-98928282D01*
X126397159Y-99024536D01*
X126543238Y-99085044D01*
X126700000Y-99105682D01*
X126708188Y-99104604D01*
X126848574Y-99086122D01*
X126856762Y-99085044D01*
X127002841Y-99024536D01*
X127128282Y-98928282D01*
X127224536Y-98802841D01*
X127285044Y-98656762D01*
X127305682Y-98500000D01*
X127285044Y-98343238D01*
X127224536Y-98197159D01*
X127128282Y-98071718D01*
X127002841Y-97975464D01*
X126856762Y-97914956D01*
X126700000Y-97894318D01*
X126543238Y-97914956D01*
X126397159Y-97975464D01*
X126271718Y-98071718D01*
X126175464Y-98197159D01*
X126114956Y-98343238D01*
X126094318Y-98500000D01*
X114601208Y-98500000D01*
X114564114Y-98471537D01*
X114418035Y-98411029D01*
X114261273Y-98390391D01*
X114104511Y-98411029D01*
X113958432Y-98471537D01*
X113832991Y-98567791D01*
X113736737Y-98693232D01*
X113676229Y-98839311D01*
X113655591Y-98996073D01*
X100200500Y-98996073D01*
X100200500Y-95650000D01*
X101950000Y-95650000D01*
X101963825Y-95649878D01*
X101963827Y-95649878D01*
X103724088Y-95634300D01*
X113428318Y-95634300D01*
X113448956Y-95791062D01*
X113509464Y-95937141D01*
X113605718Y-96062582D01*
X113731159Y-96158836D01*
X113877238Y-96219344D01*
X114034000Y-96239982D01*
X114042188Y-96238904D01*
X114182574Y-96220422D01*
X114190762Y-96219344D01*
X114336841Y-96158836D01*
X114462282Y-96062582D01*
X114462715Y-96063146D01*
X114519477Y-96032150D01*
X114590292Y-96037215D01*
X114647128Y-96079762D01*
X114671939Y-96146282D01*
X114671182Y-96171717D01*
X114651318Y-96322600D01*
X114671956Y-96479362D01*
X114732464Y-96625441D01*
X114828718Y-96750882D01*
X114954159Y-96847136D01*
X115100238Y-96907644D01*
X115257000Y-96928282D01*
X115265188Y-96927204D01*
X115405574Y-96908722D01*
X115413762Y-96907644D01*
X115559841Y-96847136D01*
X115685282Y-96750882D01*
X115707290Y-96722200D01*
X127525318Y-96722200D01*
X127545956Y-96878962D01*
X127606464Y-97025041D01*
X127702718Y-97150482D01*
X127828159Y-97246736D01*
X127974238Y-97307244D01*
X128131000Y-97327882D01*
X128139188Y-97326804D01*
X128279574Y-97308322D01*
X128287762Y-97307244D01*
X128433841Y-97246736D01*
X128559282Y-97150482D01*
X128655536Y-97025041D01*
X128716044Y-96878962D01*
X128736682Y-96722200D01*
X128716044Y-96565438D01*
X128655536Y-96419359D01*
X128559282Y-96293918D01*
X128433841Y-96197664D01*
X128287762Y-96137156D01*
X128131000Y-96116518D01*
X127974238Y-96137156D01*
X127828159Y-96197664D01*
X127702718Y-96293918D01*
X127606464Y-96419359D01*
X127545956Y-96565438D01*
X127525318Y-96722200D01*
X115707290Y-96722200D01*
X115781536Y-96625441D01*
X115842044Y-96479362D01*
X115862682Y-96322600D01*
X115842044Y-96165838D01*
X115781536Y-96019759D01*
X115685282Y-95894318D01*
X115559841Y-95798064D01*
X115413762Y-95737556D01*
X115257000Y-95716918D01*
X115100238Y-95737556D01*
X114954159Y-95798064D01*
X114828718Y-95894318D01*
X114828285Y-95893754D01*
X114771523Y-95924750D01*
X114700708Y-95919685D01*
X114643872Y-95877138D01*
X114619061Y-95810618D01*
X114619818Y-95785183D01*
X114638604Y-95642488D01*
X114639682Y-95634300D01*
X114622001Y-95500000D01*
X131994318Y-95500000D01*
X132014956Y-95656762D01*
X132075464Y-95802841D01*
X132171718Y-95928282D01*
X132297159Y-96024536D01*
X132443238Y-96085044D01*
X132600000Y-96105682D01*
X132608188Y-96104604D01*
X132748574Y-96086122D01*
X132756762Y-96085044D01*
X132902841Y-96024536D01*
X133028282Y-95928282D01*
X133124536Y-95802841D01*
X133185044Y-95656762D01*
X133205682Y-95500000D01*
X133185044Y-95343238D01*
X133124536Y-95197159D01*
X133028282Y-95071718D01*
X132902841Y-94975464D01*
X132756762Y-94914956D01*
X132600000Y-94894318D01*
X132443238Y-94914956D01*
X132297159Y-94975464D01*
X132171718Y-95071718D01*
X132075464Y-95197159D01*
X132014956Y-95343238D01*
X131994318Y-95500000D01*
X114622001Y-95500000D01*
X114619044Y-95477538D01*
X114558536Y-95331459D01*
X114462282Y-95206018D01*
X114336841Y-95109764D01*
X114190762Y-95049256D01*
X114034000Y-95028618D01*
X113877238Y-95049256D01*
X113731159Y-95109764D01*
X113605718Y-95206018D01*
X113509464Y-95331459D01*
X113448956Y-95477538D01*
X113428318Y-95634300D01*
X103724088Y-95634300D01*
X104994622Y-95623056D01*
X107600000Y-95600000D01*
X107600000Y-94872764D01*
X107620002Y-94804643D01*
X107673658Y-94758150D01*
X107709553Y-94747842D01*
X107798574Y-94736122D01*
X107806762Y-94735044D01*
X107952841Y-94674536D01*
X108078282Y-94578282D01*
X108174536Y-94452841D01*
X108219537Y-94344200D01*
X114910318Y-94344200D01*
X114930956Y-94500962D01*
X114991464Y-94647041D01*
X115087718Y-94772482D01*
X115213159Y-94868736D01*
X115359238Y-94929244D01*
X115516000Y-94949882D01*
X115524188Y-94948804D01*
X115664574Y-94930322D01*
X115672762Y-94929244D01*
X115818841Y-94868736D01*
X115944282Y-94772482D01*
X116040536Y-94647041D01*
X116101044Y-94500962D01*
X116121682Y-94344200D01*
X116101044Y-94187438D01*
X116040536Y-94041359D01*
X115944282Y-93915918D01*
X115818841Y-93819664D01*
X115672762Y-93759156D01*
X115516000Y-93738518D01*
X115359238Y-93759156D01*
X115213159Y-93819664D01*
X115087718Y-93915918D01*
X114991464Y-94041359D01*
X114930956Y-94187438D01*
X114910318Y-94344200D01*
X108219537Y-94344200D01*
X108235044Y-94306762D01*
X108255682Y-94150000D01*
X108235044Y-93993238D01*
X108174536Y-93847159D01*
X108078282Y-93721718D01*
X107952841Y-93625464D01*
X107806762Y-93564956D01*
X107798574Y-93563878D01*
X107709553Y-93552158D01*
X107644626Y-93523435D01*
X107605535Y-93464170D01*
X107600000Y-93427236D01*
X107600000Y-91225000D01*
X120069318Y-91225000D01*
X120089956Y-91381762D01*
X120150464Y-91527841D01*
X120246718Y-91653282D01*
X120372159Y-91749536D01*
X120518238Y-91810044D01*
X120675000Y-91830682D01*
X120683188Y-91829604D01*
X120823574Y-91811122D01*
X120831762Y-91810044D01*
X120977841Y-91749536D01*
X121103282Y-91653282D01*
X121199536Y-91527841D01*
X121260044Y-91381762D01*
X121280682Y-91225000D01*
X121260044Y-91068238D01*
X121199536Y-90922159D01*
X121103282Y-90796718D01*
X120977841Y-90700464D01*
X120831762Y-90639956D01*
X120675000Y-90619318D01*
X120518238Y-90639956D01*
X120372159Y-90700464D01*
X120246718Y-90796718D01*
X120150464Y-90922159D01*
X120089956Y-91068238D01*
X120069318Y-91225000D01*
X107600000Y-91225000D01*
X107600000Y-90525000D01*
X115944318Y-90525000D01*
X115964956Y-90681762D01*
X116025464Y-90827841D01*
X116121718Y-90953282D01*
X116247159Y-91049536D01*
X116393238Y-91110044D01*
X116550000Y-91130682D01*
X116558188Y-91129604D01*
X116698574Y-91111122D01*
X116706762Y-91110044D01*
X116852841Y-91049536D01*
X116978282Y-90953282D01*
X117074536Y-90827841D01*
X117135044Y-90681762D01*
X117155682Y-90525000D01*
X117135044Y-90368238D01*
X117074536Y-90222159D01*
X116980800Y-90100000D01*
X121594318Y-90100000D01*
X121614956Y-90256762D01*
X121675464Y-90402841D01*
X121771718Y-90528282D01*
X121897159Y-90624536D01*
X122015547Y-90673574D01*
X122035315Y-90681762D01*
X122043238Y-90685044D01*
X122200000Y-90705682D01*
X122208188Y-90704604D01*
X122348574Y-90686122D01*
X122356762Y-90685044D01*
X122364686Y-90681762D01*
X122384453Y-90673574D01*
X122502841Y-90624536D01*
X122628282Y-90528282D01*
X122724536Y-90402841D01*
X122785044Y-90256762D01*
X122805682Y-90100000D01*
X122785044Y-89943238D01*
X122784407Y-89941700D01*
X123941318Y-89941700D01*
X123961956Y-90098462D01*
X124022464Y-90244541D01*
X124118718Y-90369982D01*
X124244159Y-90466236D01*
X124390238Y-90526744D01*
X124547000Y-90547382D01*
X124555188Y-90546304D01*
X124695574Y-90527822D01*
X124703762Y-90526744D01*
X124849841Y-90466236D01*
X124975282Y-90369982D01*
X125071536Y-90244541D01*
X125132044Y-90098462D01*
X125152682Y-89941700D01*
X125132044Y-89784938D01*
X125079566Y-89658245D01*
X125071977Y-89587655D01*
X125103756Y-89524168D01*
X125147757Y-89493618D01*
X125284841Y-89436836D01*
X125410282Y-89340582D01*
X125506536Y-89215141D01*
X125533518Y-89150000D01*
X132094318Y-89150000D01*
X132114956Y-89306762D01*
X132175464Y-89452841D01*
X132271718Y-89578282D01*
X132397159Y-89674536D01*
X132543238Y-89735044D01*
X132700000Y-89755682D01*
X132708188Y-89754604D01*
X132848574Y-89736122D01*
X132856762Y-89735044D01*
X133002841Y-89674536D01*
X133128282Y-89578282D01*
X133224536Y-89452841D01*
X133285044Y-89306762D01*
X133305682Y-89150000D01*
X133285044Y-88993238D01*
X133224536Y-88847159D01*
X133128282Y-88721718D01*
X133119070Y-88714649D01*
X133009392Y-88630491D01*
X133002841Y-88625464D01*
X132856762Y-88564956D01*
X132700000Y-88544318D01*
X132543238Y-88564956D01*
X132397159Y-88625464D01*
X132390608Y-88630491D01*
X132280931Y-88714649D01*
X132271718Y-88721718D01*
X132175464Y-88847159D01*
X132114956Y-88993238D01*
X132094318Y-89150000D01*
X125533518Y-89150000D01*
X125567044Y-89069062D01*
X125587682Y-88912300D01*
X125567044Y-88755538D01*
X125506536Y-88609459D01*
X125410282Y-88484018D01*
X125284841Y-88387764D01*
X125138762Y-88327256D01*
X124982000Y-88306618D01*
X124825238Y-88327256D01*
X124679159Y-88387764D01*
X124553718Y-88484018D01*
X124457464Y-88609459D01*
X124396956Y-88755538D01*
X124376318Y-88912300D01*
X124396956Y-89069062D01*
X124400116Y-89076691D01*
X124449434Y-89195755D01*
X124457023Y-89266345D01*
X124425244Y-89329832D01*
X124381244Y-89360382D01*
X124244159Y-89417164D01*
X124118718Y-89513418D01*
X124022464Y-89638859D01*
X123961956Y-89784938D01*
X123941318Y-89941700D01*
X122784407Y-89941700D01*
X122724536Y-89797159D01*
X122628282Y-89671718D01*
X122502841Y-89575464D01*
X122356762Y-89514956D01*
X122200000Y-89494318D01*
X122043238Y-89514956D01*
X121897159Y-89575464D01*
X121771718Y-89671718D01*
X121675464Y-89797159D01*
X121614956Y-89943238D01*
X121594318Y-90100000D01*
X116980800Y-90100000D01*
X116978282Y-90096718D01*
X116852841Y-90000464D01*
X116725053Y-89947532D01*
X116714391Y-89943116D01*
X116706762Y-89939956D01*
X116550000Y-89919318D01*
X116393238Y-89939956D01*
X116385609Y-89943116D01*
X116374947Y-89947532D01*
X116247159Y-90000464D01*
X116121718Y-90096718D01*
X116025464Y-90222159D01*
X115964956Y-90368238D01*
X115944318Y-90525000D01*
X107600000Y-90525000D01*
X107600000Y-89000000D01*
X113044318Y-89000000D01*
X113064956Y-89156762D01*
X113125464Y-89302841D01*
X113221718Y-89428282D01*
X113347159Y-89524536D01*
X113493238Y-89585044D01*
X113501426Y-89586122D01*
X113571619Y-89595363D01*
X113650000Y-89605682D01*
X113658188Y-89604604D01*
X113798574Y-89586122D01*
X113806762Y-89585044D01*
X113952841Y-89524536D01*
X114078282Y-89428282D01*
X114174536Y-89302841D01*
X114235044Y-89156762D01*
X114255682Y-89000000D01*
X114235044Y-88843238D01*
X114174536Y-88697159D01*
X114078282Y-88571718D01*
X114071736Y-88566695D01*
X114071733Y-88566692D01*
X114004882Y-88515396D01*
X113963014Y-88458058D01*
X113961938Y-88440000D01*
X120819318Y-88440000D01*
X120839956Y-88596762D01*
X120900464Y-88742841D01*
X120996718Y-88868282D01*
X121122159Y-88964536D01*
X121268238Y-89025044D01*
X121425000Y-89045682D01*
X121433188Y-89044604D01*
X121573574Y-89026122D01*
X121581762Y-89025044D01*
X121727841Y-88964536D01*
X121853282Y-88868282D01*
X121949536Y-88742841D01*
X122010044Y-88596762D01*
X122030682Y-88440000D01*
X122010044Y-88283238D01*
X121949536Y-88137159D01*
X121853282Y-88011718D01*
X121727841Y-87915464D01*
X121581762Y-87854956D01*
X121425000Y-87834318D01*
X121268238Y-87854956D01*
X121122159Y-87915464D01*
X120996718Y-88011718D01*
X120900464Y-88137159D01*
X120839956Y-88283238D01*
X120819318Y-88440000D01*
X113961938Y-88440000D01*
X113958792Y-88387187D01*
X113993556Y-88325284D01*
X114033367Y-88299024D01*
X114110819Y-88266942D01*
X114152841Y-88249536D01*
X114242082Y-88181059D01*
X114271736Y-88158305D01*
X114278282Y-88153282D01*
X114374536Y-88027841D01*
X114435044Y-87881762D01*
X114455682Y-87725000D01*
X114435044Y-87568238D01*
X114374536Y-87422159D01*
X114278282Y-87296718D01*
X114152841Y-87200464D01*
X114108506Y-87182100D01*
X124791318Y-87182100D01*
X124811956Y-87338862D01*
X124872464Y-87484941D01*
X124968718Y-87610382D01*
X125094159Y-87706636D01*
X125240238Y-87767144D01*
X125397000Y-87787782D01*
X125405188Y-87786704D01*
X125545574Y-87768222D01*
X125553762Y-87767144D01*
X125561389Y-87763985D01*
X125561392Y-87763984D01*
X125618183Y-87740460D01*
X125688773Y-87732871D01*
X125752260Y-87764650D01*
X125788487Y-87825708D01*
X125785953Y-87896660D01*
X125782810Y-87905087D01*
X125750320Y-87983526D01*
X125745278Y-87995698D01*
X125724640Y-88152460D01*
X125745278Y-88309222D01*
X125805786Y-88455301D01*
X125902040Y-88580742D01*
X126027481Y-88676996D01*
X126173560Y-88737504D01*
X126330322Y-88758142D01*
X126338510Y-88757064D01*
X126478896Y-88738582D01*
X126487084Y-88737504D01*
X126633163Y-88676996D01*
X126758604Y-88580742D01*
X126854858Y-88455301D01*
X126915366Y-88309222D01*
X126936004Y-88152460D01*
X126915366Y-87995698D01*
X126854858Y-87849619D01*
X126758604Y-87724178D01*
X126749005Y-87716812D01*
X126722404Y-87696401D01*
X126633163Y-87627924D01*
X126487084Y-87567416D01*
X126435380Y-87560609D01*
X126338510Y-87547856D01*
X126330322Y-87546778D01*
X126322134Y-87547856D01*
X126225265Y-87560609D01*
X126173560Y-87567416D01*
X126165933Y-87570575D01*
X126165930Y-87570576D01*
X126109139Y-87594100D01*
X126038549Y-87601689D01*
X125975062Y-87569910D01*
X125938835Y-87508852D01*
X125941369Y-87437900D01*
X125944512Y-87429473D01*
X125978884Y-87346492D01*
X125978885Y-87346489D01*
X125982044Y-87338862D01*
X126002682Y-87182100D01*
X125982044Y-87025338D01*
X125921536Y-86879259D01*
X125847818Y-86783188D01*
X125841535Y-86775000D01*
X130293818Y-86775000D01*
X130314456Y-86931762D01*
X130374964Y-87077841D01*
X130379991Y-87084392D01*
X130454965Y-87182100D01*
X130471218Y-87203282D01*
X130596659Y-87299536D01*
X130742738Y-87360044D01*
X130899500Y-87380682D01*
X130907688Y-87379604D01*
X131048074Y-87361122D01*
X131056262Y-87360044D01*
X131202341Y-87299536D01*
X131327782Y-87203282D01*
X131344036Y-87182100D01*
X131419009Y-87084392D01*
X131424036Y-87077841D01*
X131484544Y-86931762D01*
X131505182Y-86775000D01*
X131484544Y-86618238D01*
X131424036Y-86472159D01*
X131327782Y-86346718D01*
X131321236Y-86341695D01*
X131318636Y-86339095D01*
X131284610Y-86276783D01*
X131289675Y-86205968D01*
X131318636Y-86160905D01*
X131321236Y-86158305D01*
X131327782Y-86153282D01*
X131424036Y-86027841D01*
X131484544Y-85881762D01*
X131505182Y-85725000D01*
X131484544Y-85568238D01*
X131424036Y-85422159D01*
X131327782Y-85296718D01*
X131313305Y-85285609D01*
X131282818Y-85262216D01*
X131202341Y-85200464D01*
X131056262Y-85139956D01*
X130899500Y-85119318D01*
X130742738Y-85139956D01*
X130596659Y-85200464D01*
X130516182Y-85262216D01*
X130485696Y-85285609D01*
X130471218Y-85296718D01*
X130374964Y-85422159D01*
X130314456Y-85568238D01*
X130293818Y-85725000D01*
X130314456Y-85881762D01*
X130374964Y-86027841D01*
X130471218Y-86153282D01*
X130477764Y-86158305D01*
X130480364Y-86160905D01*
X130514390Y-86223217D01*
X130509325Y-86294032D01*
X130480364Y-86339095D01*
X130477764Y-86341695D01*
X130471218Y-86346718D01*
X130374964Y-86472159D01*
X130314456Y-86618238D01*
X130293818Y-86775000D01*
X125841535Y-86775000D01*
X125830305Y-86760364D01*
X125825282Y-86753818D01*
X125699841Y-86657564D01*
X125553762Y-86597056D01*
X125397000Y-86576418D01*
X125240238Y-86597056D01*
X125094159Y-86657564D01*
X124968718Y-86753818D01*
X124963695Y-86760364D01*
X124946182Y-86783188D01*
X124872464Y-86879259D01*
X124811956Y-87025338D01*
X124791318Y-87182100D01*
X114108506Y-87182100D01*
X114006762Y-87139956D01*
X113850000Y-87119318D01*
X113693238Y-87139956D01*
X113547159Y-87200464D01*
X113421718Y-87296718D01*
X113325464Y-87422159D01*
X113264956Y-87568238D01*
X113244318Y-87725000D01*
X113264956Y-87881762D01*
X113325464Y-88027841D01*
X113421718Y-88153282D01*
X113428264Y-88158305D01*
X113428267Y-88158308D01*
X113495118Y-88209604D01*
X113536986Y-88266942D01*
X113541208Y-88337813D01*
X113506444Y-88399716D01*
X113466632Y-88425976D01*
X113347159Y-88475464D01*
X113221718Y-88571718D01*
X113125464Y-88697159D01*
X113064956Y-88843238D01*
X113044318Y-89000000D01*
X107600000Y-89000000D01*
X107600000Y-88286367D01*
X108171537Y-88286367D01*
X108192175Y-88443129D01*
X108252683Y-88589208D01*
X108348937Y-88714649D01*
X108355483Y-88719672D01*
X108366680Y-88728264D01*
X108474378Y-88810903D01*
X108620457Y-88871411D01*
X108777219Y-88892049D01*
X108785407Y-88890971D01*
X108925793Y-88872489D01*
X108933981Y-88871411D01*
X109080060Y-88810903D01*
X109187758Y-88728264D01*
X109198955Y-88719672D01*
X109205501Y-88714649D01*
X109301755Y-88589208D01*
X109362263Y-88443129D01*
X109382901Y-88286367D01*
X109362263Y-88129605D01*
X109301755Y-87983526D01*
X109205501Y-87858085D01*
X109080060Y-87761831D01*
X108933981Y-87701323D01*
X108777219Y-87680685D01*
X108620457Y-87701323D01*
X108474378Y-87761831D01*
X108348937Y-87858085D01*
X108252683Y-87983526D01*
X108192175Y-88129605D01*
X108171537Y-88286367D01*
X107600000Y-88286367D01*
X107600000Y-85690498D01*
X110046001Y-85690498D01*
X110066639Y-85847260D01*
X110127147Y-85993339D01*
X110174157Y-86054604D01*
X110215277Y-86108192D01*
X110223401Y-86118780D01*
X110229947Y-86123803D01*
X110259601Y-86146557D01*
X110348842Y-86215034D01*
X110494921Y-86275542D01*
X110651683Y-86296180D01*
X110659871Y-86295102D01*
X110800257Y-86276620D01*
X110808445Y-86275542D01*
X110954524Y-86215034D01*
X111043765Y-86146557D01*
X111073419Y-86123803D01*
X111079965Y-86118780D01*
X111088090Y-86108192D01*
X111129209Y-86054604D01*
X111176219Y-85993339D01*
X111236727Y-85847260D01*
X111257365Y-85690498D01*
X111236727Y-85533736D01*
X111176219Y-85387657D01*
X111079965Y-85262216D01*
X110954524Y-85165962D01*
X110808445Y-85105454D01*
X110792783Y-85103392D01*
X110659871Y-85085894D01*
X110651683Y-85084816D01*
X110643495Y-85085894D01*
X110510584Y-85103392D01*
X110494921Y-85105454D01*
X110348842Y-85165962D01*
X110223401Y-85262216D01*
X110127147Y-85387657D01*
X110066639Y-85533736D01*
X110046001Y-85690498D01*
X107600000Y-85690498D01*
X107600000Y-84948400D01*
X118445318Y-84948400D01*
X118465956Y-85105162D01*
X118526464Y-85251241D01*
X118622718Y-85376682D01*
X118748159Y-85472936D01*
X118814591Y-85500453D01*
X118869872Y-85545001D01*
X118892293Y-85612365D01*
X118888924Y-85642034D01*
X118888956Y-85642038D01*
X118887879Y-85650222D01*
X118887878Y-85650224D01*
X118873506Y-85759392D01*
X118868318Y-85798800D01*
X118869396Y-85806988D01*
X118882549Y-85906892D01*
X118888956Y-85955562D01*
X118949464Y-86101641D01*
X119045718Y-86227082D01*
X119171159Y-86323336D01*
X119317238Y-86383844D01*
X119474000Y-86404482D01*
X119482188Y-86403404D01*
X119622574Y-86384922D01*
X119630762Y-86383844D01*
X119776841Y-86323336D01*
X119902282Y-86227082D01*
X119998536Y-86101641D01*
X120059044Y-85955562D01*
X120065452Y-85906892D01*
X120078604Y-85806988D01*
X120079682Y-85798800D01*
X120059044Y-85642038D01*
X119998536Y-85495959D01*
X119963270Y-85450000D01*
X120319318Y-85450000D01*
X120339956Y-85606762D01*
X120400464Y-85752841D01*
X120496718Y-85878282D01*
X120503264Y-85883305D01*
X120515522Y-85892711D01*
X120622159Y-85974536D01*
X120768238Y-86035044D01*
X120925000Y-86055682D01*
X120933188Y-86054604D01*
X121073574Y-86036122D01*
X121081762Y-86035044D01*
X121227841Y-85974536D01*
X121334478Y-85892711D01*
X121346736Y-85883305D01*
X121353282Y-85878282D01*
X121449536Y-85752841D01*
X121510044Y-85606762D01*
X121511263Y-85597500D01*
X125709318Y-85597500D01*
X125729956Y-85754262D01*
X125790464Y-85900341D01*
X125886718Y-86025782D01*
X125893264Y-86030805D01*
X125900193Y-86036122D01*
X126012159Y-86122036D01*
X126158238Y-86182544D01*
X126315000Y-86203182D01*
X126323188Y-86202104D01*
X126463574Y-86183622D01*
X126471762Y-86182544D01*
X126617841Y-86122036D01*
X126729807Y-86036122D01*
X126736736Y-86030805D01*
X126743282Y-86025782D01*
X126839536Y-85900341D01*
X126900044Y-85754262D01*
X126920682Y-85597500D01*
X126907314Y-85495959D01*
X126901122Y-85448926D01*
X126900044Y-85440738D01*
X126839536Y-85294659D01*
X126743282Y-85169218D01*
X126734921Y-85162802D01*
X126660183Y-85105454D01*
X126617841Y-85072964D01*
X126471762Y-85012456D01*
X126315000Y-84991818D01*
X126158238Y-85012456D01*
X126012159Y-85072964D01*
X125969817Y-85105454D01*
X125895080Y-85162802D01*
X125886718Y-85169218D01*
X125790464Y-85294659D01*
X125729956Y-85440738D01*
X125728878Y-85448926D01*
X125722686Y-85495959D01*
X125709318Y-85597500D01*
X121511263Y-85597500D01*
X121530682Y-85450000D01*
X121510044Y-85293238D01*
X121449536Y-85147159D01*
X121353282Y-85021718D01*
X121341212Y-85012456D01*
X121234392Y-84930491D01*
X121227841Y-84925464D01*
X121081762Y-84864956D01*
X120925000Y-84844318D01*
X120768238Y-84864956D01*
X120622159Y-84925464D01*
X120615608Y-84930491D01*
X120508789Y-85012456D01*
X120496718Y-85021718D01*
X120400464Y-85147159D01*
X120339956Y-85293238D01*
X120319318Y-85450000D01*
X119963270Y-85450000D01*
X119910866Y-85381705D01*
X119907305Y-85377064D01*
X119902282Y-85370518D01*
X119776841Y-85274264D01*
X119710409Y-85246747D01*
X119655128Y-85202199D01*
X119632707Y-85134835D01*
X119636076Y-85105166D01*
X119636044Y-85105162D01*
X119636277Y-85103392D01*
X119656682Y-84948400D01*
X119636044Y-84791638D01*
X119575536Y-84645559D01*
X119479282Y-84520118D01*
X119353841Y-84423864D01*
X119207762Y-84363356D01*
X119051000Y-84342718D01*
X118894238Y-84363356D01*
X118748159Y-84423864D01*
X118622718Y-84520118D01*
X118526464Y-84645559D01*
X118465956Y-84791638D01*
X118445318Y-84948400D01*
X107600000Y-84948400D01*
X107600000Y-83850000D01*
X108044318Y-83850000D01*
X108064956Y-84006762D01*
X108125464Y-84152841D01*
X108221718Y-84278282D01*
X108347159Y-84374536D01*
X108493238Y-84435044D01*
X108650000Y-84455682D01*
X108658188Y-84454604D01*
X108798574Y-84436122D01*
X108806762Y-84435044D01*
X108952841Y-84374536D01*
X109078282Y-84278282D01*
X109174536Y-84152841D01*
X109235044Y-84006762D01*
X109245808Y-83925000D01*
X120819318Y-83925000D01*
X120839956Y-84081762D01*
X120900464Y-84227841D01*
X120996718Y-84353282D01*
X121003264Y-84358305D01*
X121013965Y-84366516D01*
X121122159Y-84449536D01*
X121268238Y-84510044D01*
X121425000Y-84530682D01*
X121433188Y-84529604D01*
X121573574Y-84511122D01*
X121581762Y-84510044D01*
X121727841Y-84449536D01*
X121836035Y-84366516D01*
X121846736Y-84358305D01*
X121853282Y-84353282D01*
X121949536Y-84227841D01*
X122010044Y-84081762D01*
X122030682Y-83925000D01*
X122011474Y-83779100D01*
X134847318Y-83779100D01*
X134867956Y-83935862D01*
X134928464Y-84081941D01*
X135024718Y-84207382D01*
X135150159Y-84303636D01*
X135296238Y-84364144D01*
X135453000Y-84384782D01*
X135461188Y-84383704D01*
X135601574Y-84365222D01*
X135609762Y-84364144D01*
X135755841Y-84303636D01*
X135881282Y-84207382D01*
X135977536Y-84081941D01*
X136038044Y-83935862D01*
X136058682Y-83779100D01*
X136038044Y-83622338D01*
X135977536Y-83476259D01*
X135881282Y-83350818D01*
X135865722Y-83338878D01*
X135813552Y-83298847D01*
X135755841Y-83254564D01*
X135609762Y-83194056D01*
X135453000Y-83173418D01*
X135296238Y-83194056D01*
X135150159Y-83254564D01*
X135092448Y-83298847D01*
X135040279Y-83338878D01*
X135024718Y-83350818D01*
X134928464Y-83476259D01*
X134867956Y-83622338D01*
X134847318Y-83779100D01*
X122011474Y-83779100D01*
X122010044Y-83768238D01*
X121949536Y-83622159D01*
X121853282Y-83496718D01*
X121727841Y-83400464D01*
X121581762Y-83339956D01*
X121425000Y-83319318D01*
X121268238Y-83339956D01*
X121122159Y-83400464D01*
X120996718Y-83496718D01*
X120900464Y-83622159D01*
X120839956Y-83768238D01*
X120819318Y-83925000D01*
X109245808Y-83925000D01*
X109255682Y-83850000D01*
X109235044Y-83693238D01*
X109174536Y-83547159D01*
X109078282Y-83421718D01*
X108952841Y-83325464D01*
X108806762Y-83264956D01*
X108650000Y-83244318D01*
X108493238Y-83264956D01*
X108347159Y-83325464D01*
X108221718Y-83421718D01*
X108125464Y-83547159D01*
X108064956Y-83693238D01*
X108044318Y-83850000D01*
X107600000Y-83850000D01*
X107600000Y-83750000D01*
X102000000Y-83750000D01*
X101999943Y-83763410D01*
X101999943Y-83763412D01*
X101952047Y-95114791D01*
X101950000Y-95600000D01*
X101950000Y-95650000D01*
X100200500Y-95650000D01*
X100200500Y-81200000D01*
X112144318Y-81200000D01*
X112164956Y-81356762D01*
X112225464Y-81502841D01*
X112321718Y-81628282D01*
X112328264Y-81633305D01*
X112345351Y-81646416D01*
X112447159Y-81724536D01*
X112593238Y-81785044D01*
X112690602Y-81797862D01*
X112755529Y-81826584D01*
X112794621Y-81885849D01*
X112795466Y-81956841D01*
X112783277Y-81985782D01*
X112780491Y-81990607D01*
X112775464Y-81997159D01*
X112714956Y-82143238D01*
X112694318Y-82300000D01*
X112714956Y-82456762D01*
X112775464Y-82602841D01*
X112871718Y-82728282D01*
X112997159Y-82824536D01*
X113143238Y-82885044D01*
X113300000Y-82905682D01*
X113308188Y-82904604D01*
X113448574Y-82886122D01*
X113456762Y-82885044D01*
X113602841Y-82824536D01*
X113728282Y-82728282D01*
X113754401Y-82694243D01*
X128042182Y-82694243D01*
X128062820Y-82851005D01*
X128123328Y-82997084D01*
X128219582Y-83122525D01*
X128345023Y-83218779D01*
X128491102Y-83279287D01*
X128647864Y-83299925D01*
X128656052Y-83298847D01*
X128796438Y-83280365D01*
X128804626Y-83279287D01*
X128950705Y-83218779D01*
X129076146Y-83122525D01*
X129172400Y-82997084D01*
X129232908Y-82851005D01*
X129236040Y-82852302D01*
X129264820Y-82805126D01*
X129328692Y-82774129D01*
X129397758Y-82781983D01*
X129465841Y-82810184D01*
X129465844Y-82810185D01*
X129473471Y-82813344D01*
X129630233Y-82833982D01*
X129638421Y-82832904D01*
X129778807Y-82814422D01*
X129786995Y-82813344D01*
X129933074Y-82752836D01*
X130058515Y-82656582D01*
X130154769Y-82531141D01*
X130215277Y-82385062D01*
X130235915Y-82228300D01*
X130215277Y-82071538D01*
X130154769Y-81925459D01*
X130058515Y-81800018D01*
X130039001Y-81785044D01*
X129964263Y-81727696D01*
X129933074Y-81703764D01*
X129786995Y-81643256D01*
X129630233Y-81622618D01*
X129473471Y-81643256D01*
X129327392Y-81703764D01*
X129296203Y-81727696D01*
X129221466Y-81785044D01*
X129201951Y-81800018D01*
X129105697Y-81925459D01*
X129045189Y-82071538D01*
X129042057Y-82070241D01*
X129013277Y-82117417D01*
X128949405Y-82148414D01*
X128880339Y-82140560D01*
X128812256Y-82112359D01*
X128812253Y-82112358D01*
X128804626Y-82109199D01*
X128647864Y-82088561D01*
X128491102Y-82109199D01*
X128345023Y-82169707D01*
X128219582Y-82265961D01*
X128123328Y-82391402D01*
X128062820Y-82537481D01*
X128042182Y-82694243D01*
X113754401Y-82694243D01*
X113824536Y-82602841D01*
X113885044Y-82456762D01*
X113905682Y-82300000D01*
X113885044Y-82143238D01*
X113824536Y-81997159D01*
X113728282Y-81871718D01*
X113602841Y-81775464D01*
X113456762Y-81714956D01*
X113359398Y-81702138D01*
X113294471Y-81673416D01*
X113255379Y-81614151D01*
X113254534Y-81543159D01*
X113266723Y-81514218D01*
X113269509Y-81509392D01*
X113274536Y-81502841D01*
X113335044Y-81356762D01*
X113355682Y-81200000D01*
X113335044Y-81043238D01*
X113274536Y-80897159D01*
X113178282Y-80771718D01*
X113052841Y-80675464D01*
X112906762Y-80614956D01*
X112750000Y-80594318D01*
X112593238Y-80614956D01*
X112447159Y-80675464D01*
X112321718Y-80771718D01*
X112225464Y-80897159D01*
X112164956Y-81043238D01*
X112144318Y-81200000D01*
X100200500Y-81200000D01*
X100200500Y-79650000D01*
X106394318Y-79650000D01*
X106414956Y-79806762D01*
X106475464Y-79952841D01*
X106571718Y-80078282D01*
X106697159Y-80174536D01*
X106843238Y-80235044D01*
X107000000Y-80255682D01*
X107008188Y-80254604D01*
X107043159Y-80250000D01*
X108369818Y-80250000D01*
X108370896Y-80258188D01*
X108385197Y-80366812D01*
X108390456Y-80406762D01*
X108450964Y-80552841D01*
X108547218Y-80678282D01*
X108553764Y-80683305D01*
X108567157Y-80693582D01*
X108672659Y-80774536D01*
X108818738Y-80835044D01*
X108975500Y-80855682D01*
X108983688Y-80854604D01*
X109124074Y-80836122D01*
X109132262Y-80835044D01*
X109278341Y-80774536D01*
X109383843Y-80693582D01*
X109397236Y-80683305D01*
X109403782Y-80678282D01*
X109500036Y-80552841D01*
X109560544Y-80406762D01*
X109564726Y-80375000D01*
X119844318Y-80375000D01*
X119864956Y-80531762D01*
X119925464Y-80677841D01*
X120021718Y-80803282D01*
X120147159Y-80899536D01*
X120293238Y-80960044D01*
X120450000Y-80980682D01*
X120458188Y-80979604D01*
X120598574Y-80961122D01*
X120606762Y-80960044D01*
X120751721Y-80900000D01*
X127894318Y-80900000D01*
X127914956Y-81056762D01*
X127975464Y-81202841D01*
X128071718Y-81328282D01*
X128197159Y-81424536D01*
X128343238Y-81485044D01*
X128500000Y-81505682D01*
X128508188Y-81504604D01*
X128521580Y-81502841D01*
X128656762Y-81485044D01*
X128802841Y-81424536D01*
X128928282Y-81328282D01*
X129024536Y-81202841D01*
X129085044Y-81056762D01*
X129105682Y-80900000D01*
X129085044Y-80743238D01*
X129024536Y-80597159D01*
X128928282Y-80471718D01*
X128802841Y-80375464D01*
X128656762Y-80314956D01*
X128500000Y-80294318D01*
X128343238Y-80314956D01*
X128197159Y-80375464D01*
X128071718Y-80471718D01*
X127975464Y-80597159D01*
X127914956Y-80743238D01*
X127894318Y-80900000D01*
X120751721Y-80900000D01*
X120752841Y-80899536D01*
X120878282Y-80803282D01*
X120974536Y-80677841D01*
X121035044Y-80531762D01*
X121055682Y-80375000D01*
X121054925Y-80369249D01*
X121074606Y-80302221D01*
X121128262Y-80255728D01*
X121197050Y-80245420D01*
X121266812Y-80254604D01*
X121275000Y-80255682D01*
X121283188Y-80254604D01*
X121423574Y-80236122D01*
X121431762Y-80235044D01*
X121577841Y-80174536D01*
X121690748Y-80087900D01*
X126223318Y-80087900D01*
X126243956Y-80244662D01*
X126304464Y-80390741D01*
X126400718Y-80516182D01*
X126526159Y-80612436D01*
X126672238Y-80672944D01*
X126680426Y-80674022D01*
X126712784Y-80678282D01*
X126829000Y-80693582D01*
X126837188Y-80692504D01*
X126977574Y-80674022D01*
X126985762Y-80672944D01*
X127131841Y-80612436D01*
X127257282Y-80516182D01*
X127353536Y-80390741D01*
X127414044Y-80244662D01*
X127434682Y-80087900D01*
X127415635Y-79943221D01*
X127426574Y-79873072D01*
X127473703Y-79819974D01*
X127492335Y-79810368D01*
X127578841Y-79774536D01*
X127704282Y-79678282D01*
X127713581Y-79666164D01*
X127795509Y-79559392D01*
X127800536Y-79552841D01*
X127861044Y-79406762D01*
X127881682Y-79250000D01*
X127861044Y-79093238D01*
X127800536Y-78947159D01*
X127704282Y-78821718D01*
X127578841Y-78725464D01*
X127432762Y-78664956D01*
X127276000Y-78644318D01*
X127119238Y-78664956D01*
X126973159Y-78725464D01*
X126847718Y-78821718D01*
X126751464Y-78947159D01*
X126690956Y-79093238D01*
X126670318Y-79250000D01*
X126671396Y-79258188D01*
X126689365Y-79394679D01*
X126678426Y-79464828D01*
X126631297Y-79517926D01*
X126612665Y-79527532D01*
X126526159Y-79563364D01*
X126500131Y-79583336D01*
X126419253Y-79645396D01*
X126400718Y-79659618D01*
X126395695Y-79666164D01*
X126386397Y-79678282D01*
X126304464Y-79785059D01*
X126243956Y-79931138D01*
X126223318Y-80087900D01*
X121690748Y-80087900D01*
X121703282Y-80078282D01*
X121799536Y-79952841D01*
X121860044Y-79806762D01*
X121880682Y-79650000D01*
X121860044Y-79493238D01*
X121799536Y-79347159D01*
X121753617Y-79287316D01*
X121728017Y-79221095D01*
X121742282Y-79151547D01*
X121791883Y-79100751D01*
X121805361Y-79094204D01*
X121845207Y-79077699D01*
X121845212Y-79077696D01*
X121852841Y-79074536D01*
X121978282Y-78978282D01*
X122074536Y-78852841D01*
X122135044Y-78706762D01*
X122137088Y-78691240D01*
X122154604Y-78558188D01*
X122155682Y-78550000D01*
X122135044Y-78393238D01*
X122074536Y-78247159D01*
X121978282Y-78121718D01*
X121852841Y-78025464D01*
X121706762Y-77964956D01*
X121550000Y-77944318D01*
X121393238Y-77964956D01*
X121247159Y-78025464D01*
X121121718Y-78121718D01*
X121025464Y-78247159D01*
X120964956Y-78393238D01*
X120944318Y-78550000D01*
X120945396Y-78558188D01*
X120962913Y-78691240D01*
X120964956Y-78706762D01*
X121025464Y-78852841D01*
X121030491Y-78859392D01*
X121071383Y-78912684D01*
X121096983Y-78978905D01*
X121082718Y-79048453D01*
X121033117Y-79099249D01*
X121019639Y-79105796D01*
X120979793Y-79122301D01*
X120979788Y-79122304D01*
X120972159Y-79125464D01*
X120965608Y-79130491D01*
X120865412Y-79207374D01*
X120846718Y-79221718D01*
X120841695Y-79228264D01*
X120818941Y-79257918D01*
X120750464Y-79347159D01*
X120689956Y-79493238D01*
X120669318Y-79650000D01*
X120670075Y-79655751D01*
X120650394Y-79722779D01*
X120596738Y-79769272D01*
X120527950Y-79779580D01*
X120458188Y-79770396D01*
X120450000Y-79769318D01*
X120441812Y-79770396D01*
X120330435Y-79785059D01*
X120293238Y-79789956D01*
X120147159Y-79850464D01*
X120021718Y-79946718D01*
X119925464Y-80072159D01*
X119864956Y-80218238D01*
X119863878Y-80226426D01*
X119854940Y-80294318D01*
X119844318Y-80375000D01*
X109564726Y-80375000D01*
X109565804Y-80366812D01*
X109580104Y-80258188D01*
X109581182Y-80250000D01*
X109560544Y-80093238D01*
X109500036Y-79947159D01*
X109403782Y-79821718D01*
X109278341Y-79725464D01*
X109132262Y-79664956D01*
X109120474Y-79663404D01*
X108983688Y-79645396D01*
X108975500Y-79644318D01*
X108967312Y-79645396D01*
X108830527Y-79663404D01*
X108818738Y-79664956D01*
X108672659Y-79725464D01*
X108547218Y-79821718D01*
X108450964Y-79947159D01*
X108390456Y-80093238D01*
X108369818Y-80250000D01*
X107043159Y-80250000D01*
X107148574Y-80236122D01*
X107156762Y-80235044D01*
X107302841Y-80174536D01*
X107428282Y-80078282D01*
X107524536Y-79952841D01*
X107585044Y-79806762D01*
X107605682Y-79650000D01*
X107585044Y-79493238D01*
X107524536Y-79347159D01*
X107456059Y-79257918D01*
X107433305Y-79228264D01*
X107428282Y-79221718D01*
X107409589Y-79207374D01*
X107309392Y-79130491D01*
X107302841Y-79125464D01*
X107156762Y-79064956D01*
X107110002Y-79058800D01*
X110032318Y-79058800D01*
X110052956Y-79215562D01*
X110113464Y-79361641D01*
X110209718Y-79487082D01*
X110216264Y-79492105D01*
X110230275Y-79502856D01*
X110335159Y-79583336D01*
X110481238Y-79643844D01*
X110489426Y-79644922D01*
X110527998Y-79650000D01*
X110638000Y-79664482D01*
X110646188Y-79663404D01*
X110786574Y-79644922D01*
X110794762Y-79643844D01*
X110940841Y-79583336D01*
X111045725Y-79502856D01*
X111059736Y-79492105D01*
X111066282Y-79487082D01*
X111162536Y-79361641D01*
X111223044Y-79215562D01*
X111243682Y-79058800D01*
X111223044Y-78902038D01*
X111162536Y-78755959D01*
X111066282Y-78630518D01*
X110940841Y-78534264D01*
X110794762Y-78473756D01*
X110638000Y-78453118D01*
X110481238Y-78473756D01*
X110335159Y-78534264D01*
X110209718Y-78630518D01*
X110113464Y-78755959D01*
X110052956Y-78902038D01*
X110032318Y-79058800D01*
X107110002Y-79058800D01*
X107000000Y-79044318D01*
X106843238Y-79064956D01*
X106697159Y-79125464D01*
X106690608Y-79130491D01*
X106590412Y-79207374D01*
X106571718Y-79221718D01*
X106566695Y-79228264D01*
X106543941Y-79257918D01*
X106475464Y-79347159D01*
X106414956Y-79493238D01*
X106394318Y-79650000D01*
X100200500Y-79650000D01*
X100200500Y-77800000D01*
X112944318Y-77800000D01*
X112964956Y-77956762D01*
X113025464Y-78102841D01*
X113030491Y-78109392D01*
X113108344Y-78210852D01*
X113121718Y-78228282D01*
X113247159Y-78324536D01*
X113393238Y-78385044D01*
X113550000Y-78405682D01*
X113558188Y-78404604D01*
X113698574Y-78386122D01*
X113706762Y-78385044D01*
X113852841Y-78324536D01*
X113978282Y-78228282D01*
X113991657Y-78210852D01*
X114069509Y-78109392D01*
X114074536Y-78102841D01*
X114135044Y-77956762D01*
X114153164Y-77819126D01*
X133658041Y-77819126D01*
X133688435Y-78020097D01*
X133758619Y-78210852D01*
X133761979Y-78216272D01*
X133761980Y-78216273D01*
X133862363Y-78378176D01*
X133862366Y-78378180D01*
X133865726Y-78383599D01*
X133870112Y-78388237D01*
X133953972Y-78476916D01*
X134005381Y-78531280D01*
X134171879Y-78647863D01*
X134358419Y-78728586D01*
X134367538Y-78730491D01*
X134552644Y-78769162D01*
X134552649Y-78769163D01*
X134557380Y-78770151D01*
X134562262Y-78770407D01*
X134562371Y-78770413D01*
X134562387Y-78770413D01*
X134564039Y-78770500D01*
X134713300Y-78770500D01*
X134781339Y-78763589D01*
X134858368Y-78755765D01*
X134858370Y-78755765D01*
X134864716Y-78755120D01*
X135058672Y-78694338D01*
X135236444Y-78595797D01*
X135390771Y-78463523D01*
X135515348Y-78302919D01*
X135605087Y-78120545D01*
X135611686Y-78095211D01*
X135654712Y-77930034D01*
X135654712Y-77930031D01*
X135656322Y-77923852D01*
X135662383Y-77808188D01*
X135666625Y-77727256D01*
X135666625Y-77727252D01*
X135666959Y-77720874D01*
X135636565Y-77519903D01*
X135566381Y-77329148D01*
X135533096Y-77275464D01*
X135462637Y-77161824D01*
X135462634Y-77161820D01*
X135459274Y-77156401D01*
X135408625Y-77102841D01*
X135324008Y-77013361D01*
X135324007Y-77013360D01*
X135319619Y-77008720D01*
X135153121Y-76892137D01*
X134966581Y-76811414D01*
X134911945Y-76800000D01*
X134772356Y-76770838D01*
X134772351Y-76770837D01*
X134767620Y-76769849D01*
X134762738Y-76769593D01*
X134762629Y-76769587D01*
X134762613Y-76769587D01*
X134760961Y-76769500D01*
X134611700Y-76769500D01*
X134563707Y-76774375D01*
X134466632Y-76784235D01*
X134466630Y-76784235D01*
X134460284Y-76784880D01*
X134266328Y-76845662D01*
X134088556Y-76944203D01*
X133934229Y-77076477D01*
X133930322Y-77081514D01*
X133930320Y-77081516D01*
X133875831Y-77151763D01*
X133809652Y-77237081D01*
X133719913Y-77419455D01*
X133718304Y-77425633D01*
X133718303Y-77425635D01*
X133670505Y-77609136D01*
X133668678Y-77616148D01*
X133658041Y-77819126D01*
X114153164Y-77819126D01*
X114155682Y-77800000D01*
X114135044Y-77643238D01*
X114074536Y-77497159D01*
X113978282Y-77371718D01*
X113852841Y-77275464D01*
X113706762Y-77214956D01*
X113550000Y-77194318D01*
X113393238Y-77214956D01*
X113247159Y-77275464D01*
X113121718Y-77371718D01*
X113025464Y-77497159D01*
X112964956Y-77643238D01*
X112944318Y-77800000D01*
X100200500Y-77800000D01*
X100200500Y-76325000D01*
X125794318Y-76325000D01*
X125814956Y-76481762D01*
X125875464Y-76627841D01*
X125971718Y-76753282D01*
X126097159Y-76849536D01*
X126243238Y-76910044D01*
X126285488Y-76915606D01*
X126330695Y-76921558D01*
X126395623Y-76950280D01*
X126434714Y-77009546D01*
X126439171Y-77062924D01*
X126437934Y-77072325D01*
X126436318Y-77084600D01*
X126456956Y-77241362D01*
X126517464Y-77387441D01*
X126613718Y-77512882D01*
X126739159Y-77609136D01*
X126885238Y-77669644D01*
X127042000Y-77690282D01*
X127050188Y-77689204D01*
X127190574Y-77670722D01*
X127198762Y-77669644D01*
X127344841Y-77609136D01*
X127470282Y-77512882D01*
X127566536Y-77387441D01*
X127627044Y-77241362D01*
X127647682Y-77084600D01*
X127629746Y-76948359D01*
X127628122Y-76936026D01*
X127627044Y-76927838D01*
X127574092Y-76800000D01*
X128394318Y-76800000D01*
X128400737Y-76848760D01*
X128411523Y-76930682D01*
X128414956Y-76956762D01*
X128475464Y-77102841D01*
X128571718Y-77228282D01*
X128697159Y-77324536D01*
X128843238Y-77385044D01*
X129000000Y-77405682D01*
X129008188Y-77404604D01*
X129148574Y-77386122D01*
X129156762Y-77385044D01*
X129302841Y-77324536D01*
X129428282Y-77228282D01*
X129524536Y-77102841D01*
X129585044Y-76956762D01*
X129588478Y-76930682D01*
X129599263Y-76848760D01*
X129605682Y-76800000D01*
X129585044Y-76643238D01*
X129524536Y-76497159D01*
X129428282Y-76371718D01*
X129302841Y-76275464D01*
X129156762Y-76214956D01*
X129000000Y-76194318D01*
X128843238Y-76214956D01*
X128697159Y-76275464D01*
X128571718Y-76371718D01*
X128475464Y-76497159D01*
X128414956Y-76643238D01*
X128394318Y-76800000D01*
X127574092Y-76800000D01*
X127566536Y-76781759D01*
X127470282Y-76656318D01*
X127344841Y-76560064D01*
X127198762Y-76499556D01*
X127130795Y-76490608D01*
X127111305Y-76488042D01*
X127046377Y-76459320D01*
X127007286Y-76400054D01*
X127002829Y-76346676D01*
X127004604Y-76333191D01*
X127004604Y-76333188D01*
X127005682Y-76325000D01*
X126988591Y-76195182D01*
X126986122Y-76176426D01*
X126985044Y-76168238D01*
X126924536Y-76022159D01*
X126828282Y-75896718D01*
X126702841Y-75800464D01*
X126556762Y-75739956D01*
X126400000Y-75719318D01*
X126243238Y-75739956D01*
X126097159Y-75800464D01*
X125971718Y-75896718D01*
X125875464Y-76022159D01*
X125814956Y-76168238D01*
X125813878Y-76176426D01*
X125811409Y-76195182D01*
X125794318Y-76325000D01*
X100200500Y-76325000D01*
X100200500Y-75589500D01*
X135882318Y-75589500D01*
X135902956Y-75746262D01*
X135963464Y-75892341D01*
X136059718Y-76017782D01*
X136185159Y-76114036D01*
X136331238Y-76174544D01*
X136488000Y-76195182D01*
X136496188Y-76194104D01*
X136636574Y-76175622D01*
X136644762Y-76174544D01*
X136790841Y-76114036D01*
X136916282Y-76017782D01*
X137012536Y-75892341D01*
X137073044Y-75746262D01*
X137093682Y-75589500D01*
X137073044Y-75432738D01*
X137012536Y-75286659D01*
X136916282Y-75161218D01*
X136790841Y-75064964D01*
X136644762Y-75004456D01*
X136488000Y-74983818D01*
X136331238Y-75004456D01*
X136185159Y-75064964D01*
X136059718Y-75161218D01*
X135963464Y-75286659D01*
X135902956Y-75432738D01*
X135882318Y-75589500D01*
X100200500Y-75589500D01*
X100200500Y-74400000D01*
X110944318Y-74400000D01*
X110964956Y-74556762D01*
X111025464Y-74702841D01*
X111121718Y-74828282D01*
X111247159Y-74924536D01*
X111393238Y-74985044D01*
X111550000Y-75005682D01*
X111558188Y-75004604D01*
X111567501Y-75003378D01*
X111706762Y-74985044D01*
X111852841Y-74924536D01*
X111978282Y-74828282D01*
X112036858Y-74751944D01*
X119021262Y-74751944D01*
X119041900Y-74908706D01*
X119102408Y-75054785D01*
X119198662Y-75180226D01*
X119324103Y-75276480D01*
X119470182Y-75336988D01*
X119626944Y-75357626D01*
X119635132Y-75356548D01*
X119775518Y-75338066D01*
X119783706Y-75336988D01*
X119929785Y-75276480D01*
X120055226Y-75180226D01*
X120151480Y-75054785D01*
X120211988Y-74908706D01*
X120232626Y-74751944D01*
X120211988Y-74595182D01*
X120151480Y-74449103D01*
X120055226Y-74323662D01*
X119929785Y-74227408D01*
X119783706Y-74166900D01*
X119626944Y-74146262D01*
X119470182Y-74166900D01*
X119324103Y-74227408D01*
X119198662Y-74323662D01*
X119102408Y-74449103D01*
X119041900Y-74595182D01*
X119021262Y-74751944D01*
X112036858Y-74751944D01*
X112074536Y-74702841D01*
X112135044Y-74556762D01*
X112155682Y-74400000D01*
X112135044Y-74243238D01*
X112074536Y-74097159D01*
X111978282Y-73971718D01*
X111852841Y-73875464D01*
X111706762Y-73814956D01*
X111550000Y-73794318D01*
X111393238Y-73814956D01*
X111247159Y-73875464D01*
X111121718Y-73971718D01*
X111025464Y-74097159D01*
X110964956Y-74243238D01*
X110944318Y-74400000D01*
X100200500Y-74400000D01*
X100200500Y-73619748D01*
X106649500Y-73619748D01*
X106661133Y-73678231D01*
X106705448Y-73744552D01*
X106771769Y-73788867D01*
X106783938Y-73791288D01*
X106783939Y-73791288D01*
X106804592Y-73795396D01*
X106830252Y-73800500D01*
X108469748Y-73800500D01*
X108495408Y-73795396D01*
X108516061Y-73791288D01*
X108516062Y-73791288D01*
X108528231Y-73788867D01*
X108594552Y-73744552D01*
X108638867Y-73678231D01*
X108650500Y-73619748D01*
X108650500Y-72050000D01*
X111594318Y-72050000D01*
X111614956Y-72206762D01*
X111675464Y-72352841D01*
X111771718Y-72478282D01*
X111897159Y-72574536D01*
X112043238Y-72635044D01*
X112200000Y-72655682D01*
X112208188Y-72654604D01*
X112348574Y-72636122D01*
X112356762Y-72635044D01*
X112502841Y-72574536D01*
X112628282Y-72478282D01*
X112724536Y-72352841D01*
X112785044Y-72206762D01*
X112792517Y-72150000D01*
X114794318Y-72150000D01*
X114814956Y-72306762D01*
X114875464Y-72452841D01*
X114971718Y-72578282D01*
X115097159Y-72674536D01*
X115243238Y-72735044D01*
X115400000Y-72755682D01*
X115408188Y-72754604D01*
X115548574Y-72736122D01*
X115556762Y-72735044D01*
X115702841Y-72674536D01*
X115828282Y-72578282D01*
X115924536Y-72452841D01*
X115985044Y-72306762D01*
X116005682Y-72150000D01*
X115985044Y-71993238D01*
X115924536Y-71847159D01*
X115828282Y-71721718D01*
X115702841Y-71625464D01*
X115556762Y-71564956D01*
X115400000Y-71544318D01*
X115243238Y-71564956D01*
X115097159Y-71625464D01*
X114971718Y-71721718D01*
X114875464Y-71847159D01*
X114814956Y-71993238D01*
X114794318Y-72150000D01*
X112792517Y-72150000D01*
X112805682Y-72050000D01*
X112785044Y-71893238D01*
X112724536Y-71747159D01*
X112628282Y-71621718D01*
X112502841Y-71525464D01*
X112356762Y-71464956D01*
X112200000Y-71444318D01*
X112043238Y-71464956D01*
X111897159Y-71525464D01*
X111771718Y-71621718D01*
X111675464Y-71747159D01*
X111614956Y-71893238D01*
X111594318Y-72050000D01*
X108650500Y-72050000D01*
X108650500Y-71980252D01*
X108638867Y-71921769D01*
X108594552Y-71855448D01*
X108528231Y-71811133D01*
X108516062Y-71808712D01*
X108516061Y-71808712D01*
X108475816Y-71800707D01*
X108469748Y-71799500D01*
X106830252Y-71799500D01*
X106824184Y-71800707D01*
X106783939Y-71808712D01*
X106783938Y-71808712D01*
X106771769Y-71811133D01*
X106705448Y-71855448D01*
X106661133Y-71921769D01*
X106649500Y-71980252D01*
X106649500Y-73619748D01*
X100200500Y-73619748D01*
X100200500Y-70497611D01*
X131494394Y-70497611D01*
X131512999Y-70666135D01*
X131571266Y-70825356D01*
X131575502Y-70831659D01*
X131575504Y-70831664D01*
X131637390Y-70923761D01*
X131658782Y-70991458D01*
X131640178Y-71059974D01*
X131602810Y-71098801D01*
X131565763Y-71123555D01*
X131565761Y-71123557D01*
X131555448Y-71130448D01*
X131511133Y-71196769D01*
X131508712Y-71208938D01*
X131508712Y-71208939D01*
X131500707Y-71249184D01*
X131499500Y-71255252D01*
X131499500Y-72294748D01*
X131511133Y-72353231D01*
X131555448Y-72419552D01*
X131621769Y-72463867D01*
X131633938Y-72466288D01*
X131633939Y-72466288D01*
X131661329Y-72471736D01*
X131680252Y-72475500D01*
X132719748Y-72475500D01*
X132738671Y-72471736D01*
X132766061Y-72466288D01*
X132766062Y-72466288D01*
X132778231Y-72463867D01*
X132844552Y-72419552D01*
X132888867Y-72353231D01*
X132900500Y-72294748D01*
X132900500Y-71255252D01*
X132894417Y-71224671D01*
X132900745Y-71153958D01*
X132944299Y-71097890D01*
X133011252Y-71074271D01*
X133078118Y-71089359D01*
X133102469Y-71102580D01*
X133210235Y-71161092D01*
X133217584Y-71163020D01*
X133366883Y-71202188D01*
X133366885Y-71202188D01*
X133374233Y-71204116D01*
X133460609Y-71205473D01*
X133536161Y-71206660D01*
X133536164Y-71206660D01*
X133543760Y-71206779D01*
X133551165Y-71205083D01*
X133551166Y-71205083D01*
X133611586Y-71191245D01*
X133709029Y-71168928D01*
X133860498Y-71092747D01*
X133939713Y-71025090D01*
X133983651Y-70987564D01*
X133983652Y-70987563D01*
X133989423Y-70982634D01*
X134001504Y-70965821D01*
X134057497Y-70922174D01*
X134128201Y-70915727D01*
X134191166Y-70948529D01*
X134199207Y-70957014D01*
X134201594Y-70959780D01*
X134205830Y-70966083D01*
X134211449Y-70971196D01*
X134325612Y-71075077D01*
X134325616Y-71075080D01*
X134331233Y-71080191D01*
X134337906Y-71083814D01*
X134337910Y-71083817D01*
X134473558Y-71157467D01*
X134473560Y-71157468D01*
X134480235Y-71161092D01*
X134487584Y-71163020D01*
X134636883Y-71202188D01*
X134636885Y-71202188D01*
X134644233Y-71204116D01*
X134730609Y-71205473D01*
X134806161Y-71206660D01*
X134806164Y-71206660D01*
X134813760Y-71206779D01*
X134821165Y-71205083D01*
X134821166Y-71205083D01*
X134881586Y-71191245D01*
X134979029Y-71168928D01*
X135130498Y-71092747D01*
X135209713Y-71025090D01*
X135253651Y-70987564D01*
X135253652Y-70987563D01*
X135259423Y-70982634D01*
X135271504Y-70965821D01*
X135327497Y-70922174D01*
X135398201Y-70915727D01*
X135461166Y-70948529D01*
X135469207Y-70957014D01*
X135471594Y-70959780D01*
X135475830Y-70966083D01*
X135481449Y-70971196D01*
X135564958Y-71047184D01*
X135601880Y-71107824D01*
X135600157Y-71178800D01*
X135562987Y-71235326D01*
X135485604Y-71302831D01*
X135388113Y-71441547D01*
X135326524Y-71599513D01*
X135325532Y-71607046D01*
X135325532Y-71607047D01*
X135310436Y-71721718D01*
X135304394Y-71767611D01*
X135322999Y-71936135D01*
X135330867Y-71957634D01*
X135361672Y-72041812D01*
X135381266Y-72095356D01*
X135385502Y-72101659D01*
X135385502Y-72101660D01*
X135398574Y-72121113D01*
X135475830Y-72236083D01*
X135481442Y-72241190D01*
X135481445Y-72241193D01*
X135595612Y-72345077D01*
X135595616Y-72345080D01*
X135601233Y-72350191D01*
X135607906Y-72353814D01*
X135607910Y-72353817D01*
X135743558Y-72427467D01*
X135743560Y-72427468D01*
X135750235Y-72431092D01*
X135757584Y-72433020D01*
X135906883Y-72472188D01*
X135906885Y-72472188D01*
X135914233Y-72474116D01*
X136000609Y-72475473D01*
X136076161Y-72476660D01*
X136076164Y-72476660D01*
X136083760Y-72476779D01*
X136091165Y-72475083D01*
X136091166Y-72475083D01*
X136159677Y-72459392D01*
X136249029Y-72438928D01*
X136400498Y-72362747D01*
X136529423Y-72252634D01*
X136628361Y-72114947D01*
X136636237Y-72095356D01*
X136688766Y-71964687D01*
X136688767Y-71964685D01*
X136691601Y-71957634D01*
X136700766Y-71893238D01*
X136714909Y-71793862D01*
X136714909Y-71793859D01*
X136715490Y-71789778D01*
X136715645Y-71775000D01*
X136713840Y-71760080D01*
X136697549Y-71625464D01*
X136695276Y-71606680D01*
X136635345Y-71448077D01*
X136539312Y-71308349D01*
X136455663Y-71233820D01*
X136418107Y-71173570D01*
X136419088Y-71102580D01*
X136457652Y-71043933D01*
X136523648Y-70987567D01*
X136523651Y-70987564D01*
X136529423Y-70982634D01*
X136541504Y-70965821D01*
X136597497Y-70922174D01*
X136668201Y-70915727D01*
X136731166Y-70948529D01*
X136739207Y-70957014D01*
X136741594Y-70959780D01*
X136745830Y-70966083D01*
X136751449Y-70971196D01*
X136865612Y-71075077D01*
X136865616Y-71075080D01*
X136871233Y-71080191D01*
X136877906Y-71083814D01*
X136877910Y-71083817D01*
X137013558Y-71157467D01*
X137013560Y-71157468D01*
X137020235Y-71161092D01*
X137027584Y-71163020D01*
X137176883Y-71202188D01*
X137176885Y-71202188D01*
X137184233Y-71204116D01*
X137270609Y-71205473D01*
X137346161Y-71206660D01*
X137346164Y-71206660D01*
X137353760Y-71206779D01*
X137361165Y-71205083D01*
X137361166Y-71205083D01*
X137421586Y-71191245D01*
X137519029Y-71168928D01*
X137670498Y-71092747D01*
X137749713Y-71025090D01*
X137793651Y-70987564D01*
X137793652Y-70987563D01*
X137799423Y-70982634D01*
X137898361Y-70844947D01*
X137906237Y-70825356D01*
X137958766Y-70694687D01*
X137958767Y-70694685D01*
X137961601Y-70687634D01*
X137985490Y-70519778D01*
X137985645Y-70505000D01*
X137983840Y-70490080D01*
X137966188Y-70344220D01*
X137965276Y-70336680D01*
X137905345Y-70178077D01*
X137825641Y-70062107D01*
X137813614Y-70044608D01*
X137813613Y-70044607D01*
X137809312Y-70038349D01*
X137797514Y-70027837D01*
X137688392Y-69930612D01*
X137688388Y-69930610D01*
X137682721Y-69925560D01*
X137532881Y-69846224D01*
X137368441Y-69804919D01*
X137360843Y-69804879D01*
X137360841Y-69804879D01*
X137283668Y-69804475D01*
X137198895Y-69804031D01*
X137191508Y-69805805D01*
X137191504Y-69805805D01*
X137048162Y-69840220D01*
X137034032Y-69843612D01*
X137027288Y-69847093D01*
X137027285Y-69847094D01*
X137022089Y-69849776D01*
X136883369Y-69921375D01*
X136755604Y-70032831D01*
X136751237Y-70039045D01*
X136751235Y-70039047D01*
X136748574Y-70042833D01*
X136693039Y-70087064D01*
X136622407Y-70094249D01*
X136559103Y-70062107D01*
X136548837Y-70050133D01*
X136548639Y-70050308D01*
X136543613Y-70044608D01*
X136539312Y-70038349D01*
X136527514Y-70027837D01*
X136418392Y-69930612D01*
X136418388Y-69930610D01*
X136412721Y-69925560D01*
X136262881Y-69846224D01*
X136098441Y-69804919D01*
X136090843Y-69804879D01*
X136090841Y-69804879D01*
X136013668Y-69804475D01*
X135928895Y-69804031D01*
X135921508Y-69805805D01*
X135921504Y-69805805D01*
X135778162Y-69840220D01*
X135764032Y-69843612D01*
X135757288Y-69847093D01*
X135757285Y-69847094D01*
X135752089Y-69849776D01*
X135613369Y-69921375D01*
X135485604Y-70032831D01*
X135481237Y-70039045D01*
X135481235Y-70039047D01*
X135478574Y-70042833D01*
X135423039Y-70087064D01*
X135352407Y-70094249D01*
X135289103Y-70062107D01*
X135278837Y-70050133D01*
X135278639Y-70050308D01*
X135273613Y-70044608D01*
X135269312Y-70038349D01*
X135257514Y-70027837D01*
X135148392Y-69930612D01*
X135148388Y-69930610D01*
X135142721Y-69925560D01*
X134992881Y-69846224D01*
X134828441Y-69804919D01*
X134820843Y-69804879D01*
X134820841Y-69804879D01*
X134743668Y-69804475D01*
X134658895Y-69804031D01*
X134651508Y-69805805D01*
X134651504Y-69805805D01*
X134508162Y-69840220D01*
X134494032Y-69843612D01*
X134487288Y-69847093D01*
X134487285Y-69847094D01*
X134482089Y-69849776D01*
X134343369Y-69921375D01*
X134215604Y-70032831D01*
X134211237Y-70039045D01*
X134211235Y-70039047D01*
X134208574Y-70042833D01*
X134153039Y-70087064D01*
X134082407Y-70094249D01*
X134019103Y-70062107D01*
X134008837Y-70050133D01*
X134008639Y-70050308D01*
X134003613Y-70044608D01*
X133999312Y-70038349D01*
X133987514Y-70027837D01*
X133878392Y-69930612D01*
X133878388Y-69930610D01*
X133872721Y-69925560D01*
X133722881Y-69846224D01*
X133558441Y-69804919D01*
X133550843Y-69804879D01*
X133550841Y-69804879D01*
X133473668Y-69804475D01*
X133388895Y-69804031D01*
X133381508Y-69805805D01*
X133381504Y-69805805D01*
X133238162Y-69840220D01*
X133224032Y-69843612D01*
X133217288Y-69847093D01*
X133217285Y-69847094D01*
X133212089Y-69849776D01*
X133073369Y-69921375D01*
X132945604Y-70032831D01*
X132941237Y-70039045D01*
X132941235Y-70039047D01*
X132938574Y-70042833D01*
X132883039Y-70087064D01*
X132812407Y-70094249D01*
X132749103Y-70062107D01*
X132738837Y-70050133D01*
X132738639Y-70050308D01*
X132733613Y-70044608D01*
X132729312Y-70038349D01*
X132717514Y-70027837D01*
X132608392Y-69930612D01*
X132608388Y-69930610D01*
X132602721Y-69925560D01*
X132452881Y-69846224D01*
X132288441Y-69804919D01*
X132280843Y-69804879D01*
X132280841Y-69804879D01*
X132203668Y-69804475D01*
X132118895Y-69804031D01*
X132111508Y-69805805D01*
X132111504Y-69805805D01*
X131968162Y-69840220D01*
X131954032Y-69843612D01*
X131947288Y-69847093D01*
X131947285Y-69847094D01*
X131942089Y-69849776D01*
X131803369Y-69921375D01*
X131675604Y-70032831D01*
X131578113Y-70171547D01*
X131516524Y-70329513D01*
X131494394Y-70497611D01*
X100200500Y-70497611D01*
X100200500Y-69150000D01*
X113394318Y-69150000D01*
X113414956Y-69306762D01*
X113475464Y-69452841D01*
X113571718Y-69578282D01*
X113697159Y-69674536D01*
X113843238Y-69735044D01*
X114000000Y-69755682D01*
X114008188Y-69754604D01*
X114148574Y-69736122D01*
X114156762Y-69735044D01*
X114302841Y-69674536D01*
X114428282Y-69578282D01*
X114524536Y-69452841D01*
X114585044Y-69306762D01*
X114605682Y-69150000D01*
X114592517Y-69050000D01*
X118394318Y-69050000D01*
X118414956Y-69206762D01*
X118475464Y-69352841D01*
X118571718Y-69478282D01*
X118697159Y-69574536D01*
X118843238Y-69635044D01*
X119000000Y-69655682D01*
X119008188Y-69654604D01*
X119148574Y-69636122D01*
X119156762Y-69635044D01*
X119302841Y-69574536D01*
X119428282Y-69478282D01*
X119524536Y-69352841D01*
X119585044Y-69206762D01*
X119605682Y-69050000D01*
X119585044Y-68893238D01*
X119524536Y-68747159D01*
X119428282Y-68621718D01*
X119302841Y-68525464D01*
X119156762Y-68464956D01*
X119000000Y-68444318D01*
X118843238Y-68464956D01*
X118697159Y-68525464D01*
X118571718Y-68621718D01*
X118475464Y-68747159D01*
X118414956Y-68893238D01*
X118394318Y-69050000D01*
X114592517Y-69050000D01*
X114585044Y-68993238D01*
X114524536Y-68847159D01*
X114428282Y-68721718D01*
X114302841Y-68625464D01*
X114156762Y-68564956D01*
X114000000Y-68544318D01*
X113843238Y-68564956D01*
X113697159Y-68625464D01*
X113571718Y-68721718D01*
X113475464Y-68847159D01*
X113414956Y-68993238D01*
X113394318Y-69150000D01*
X100200500Y-69150000D01*
X100200500Y-66862500D01*
X136832318Y-66862500D01*
X136852956Y-67019262D01*
X136913464Y-67165341D01*
X137009718Y-67290782D01*
X137135159Y-67387036D01*
X137281238Y-67447544D01*
X137438000Y-67468182D01*
X137446188Y-67467104D01*
X137586574Y-67448622D01*
X137594762Y-67447544D01*
X137740841Y-67387036D01*
X137866282Y-67290782D01*
X137962536Y-67165341D01*
X138023044Y-67019262D01*
X138043682Y-66862500D01*
X138023044Y-66705738D01*
X137962536Y-66559659D01*
X137866282Y-66434218D01*
X137740841Y-66337964D01*
X137594762Y-66277456D01*
X137438000Y-66256818D01*
X137281238Y-66277456D01*
X137135159Y-66337964D01*
X137009718Y-66434218D01*
X136913464Y-66559659D01*
X136852956Y-66705738D01*
X136832318Y-66862500D01*
X100200500Y-66862500D01*
X100200500Y-66444748D01*
X123049500Y-66444748D01*
X123061133Y-66503231D01*
X123105448Y-66569552D01*
X123171769Y-66613867D01*
X123183938Y-66616288D01*
X123183939Y-66616288D01*
X123224184Y-66624293D01*
X123230252Y-66625500D01*
X124869748Y-66625500D01*
X124875816Y-66624293D01*
X124916061Y-66616288D01*
X124916062Y-66616288D01*
X124928231Y-66613867D01*
X124994552Y-66569552D01*
X125038867Y-66503231D01*
X125050500Y-66444748D01*
X125050500Y-65831748D01*
X131097500Y-65831748D01*
X131109133Y-65890231D01*
X131153448Y-65956552D01*
X131219769Y-66000867D01*
X131231938Y-66003288D01*
X131231939Y-66003288D01*
X131272184Y-66011293D01*
X131278252Y-66012500D01*
X132841748Y-66012500D01*
X132847816Y-66011293D01*
X132888061Y-66003288D01*
X132888062Y-66003288D01*
X132900231Y-66000867D01*
X132966552Y-65956552D01*
X133010867Y-65890231D01*
X133022500Y-65831748D01*
X133022500Y-64268252D01*
X133010867Y-64209769D01*
X132966552Y-64143448D01*
X132900231Y-64099133D01*
X132888062Y-64096712D01*
X132888061Y-64096712D01*
X132847816Y-64088707D01*
X132841748Y-64087500D01*
X131278252Y-64087500D01*
X131272184Y-64088707D01*
X131231939Y-64096712D01*
X131231938Y-64096712D01*
X131219769Y-64099133D01*
X131153448Y-64143448D01*
X131109133Y-64209769D01*
X131097500Y-64268252D01*
X131097500Y-65831748D01*
X125050500Y-65831748D01*
X125050500Y-64805252D01*
X125038867Y-64746769D01*
X124994552Y-64680448D01*
X124928231Y-64636133D01*
X124916062Y-64633712D01*
X124916061Y-64633712D01*
X124875816Y-64625707D01*
X124869748Y-64624500D01*
X123230252Y-64624500D01*
X123224184Y-64625707D01*
X123183939Y-64633712D01*
X123183938Y-64633712D01*
X123171769Y-64636133D01*
X123105448Y-64680448D01*
X123061133Y-64746769D01*
X123049500Y-64805252D01*
X123049500Y-66444748D01*
X100200500Y-66444748D01*
X100200500Y-64969748D01*
X113674500Y-64969748D01*
X113675707Y-64975816D01*
X113679331Y-64994033D01*
X113686133Y-65028231D01*
X113730448Y-65094552D01*
X113796769Y-65138867D01*
X113808938Y-65141288D01*
X113808939Y-65141288D01*
X113849184Y-65149293D01*
X113855252Y-65150500D01*
X115594748Y-65150500D01*
X115600816Y-65149293D01*
X115641061Y-65141288D01*
X115641062Y-65141288D01*
X115653231Y-65138867D01*
X115719552Y-65094552D01*
X115763867Y-65028231D01*
X115770670Y-64994033D01*
X115774293Y-64975816D01*
X115775500Y-64969748D01*
X115775500Y-64085262D01*
X116209520Y-64085262D01*
X116226759Y-64290553D01*
X116283544Y-64488586D01*
X116286359Y-64494063D01*
X116286360Y-64494066D01*
X116307247Y-64534707D01*
X116377712Y-64671818D01*
X116505677Y-64833270D01*
X116662564Y-64966791D01*
X116842398Y-65067297D01*
X116926280Y-65094552D01*
X117032471Y-65129056D01*
X117032475Y-65129057D01*
X117038329Y-65130959D01*
X117242894Y-65155351D01*
X117249029Y-65154879D01*
X117249031Y-65154879D01*
X117321625Y-65149293D01*
X117448300Y-65139546D01*
X117454230Y-65137890D01*
X117454232Y-65137890D01*
X117640797Y-65085800D01*
X117640796Y-65085800D01*
X117646725Y-65084145D01*
X117652214Y-65081372D01*
X117652220Y-65081370D01*
X117825116Y-64994033D01*
X117830610Y-64991258D01*
X117992951Y-64864424D01*
X118044027Y-64805252D01*
X118123540Y-64713134D01*
X118123540Y-64713133D01*
X118127564Y-64708472D01*
X118148387Y-64671818D01*
X118226276Y-64534707D01*
X118229323Y-64529344D01*
X118294351Y-64333863D01*
X118320171Y-64129474D01*
X118320583Y-64100000D01*
X118319138Y-64085262D01*
X118749520Y-64085262D01*
X118766759Y-64290553D01*
X118823544Y-64488586D01*
X118826359Y-64494063D01*
X118826360Y-64494066D01*
X118847247Y-64534707D01*
X118917712Y-64671818D01*
X119045677Y-64833270D01*
X119202564Y-64966791D01*
X119382398Y-65067297D01*
X119466280Y-65094552D01*
X119572471Y-65129056D01*
X119572475Y-65129057D01*
X119578329Y-65130959D01*
X119782894Y-65155351D01*
X119789029Y-65154879D01*
X119789031Y-65154879D01*
X119861625Y-65149293D01*
X119988300Y-65139546D01*
X119994230Y-65137890D01*
X119994232Y-65137890D01*
X120180797Y-65085800D01*
X120180796Y-65085800D01*
X120186725Y-65084145D01*
X120192214Y-65081372D01*
X120192220Y-65081370D01*
X120365116Y-64994033D01*
X120370610Y-64991258D01*
X120532951Y-64864424D01*
X120584027Y-64805252D01*
X120663540Y-64713134D01*
X120663540Y-64713133D01*
X120667564Y-64708472D01*
X120688387Y-64671818D01*
X120766276Y-64534707D01*
X120769323Y-64529344D01*
X120834351Y-64333863D01*
X120860171Y-64129474D01*
X120860583Y-64100000D01*
X120840480Y-63894970D01*
X120780935Y-63697749D01*
X120684218Y-63515849D01*
X120610859Y-63425902D01*
X120557906Y-63360975D01*
X120557903Y-63360972D01*
X120554011Y-63356200D01*
X120536786Y-63341950D01*
X120400025Y-63228811D01*
X120400021Y-63228809D01*
X120395275Y-63224882D01*
X120214055Y-63126897D01*
X120017254Y-63065977D01*
X120011129Y-63065333D01*
X120011128Y-63065333D01*
X119818498Y-63045087D01*
X119818496Y-63045087D01*
X119812369Y-63044443D01*
X119725529Y-63052346D01*
X119613342Y-63062555D01*
X119613339Y-63062556D01*
X119607203Y-63063114D01*
X119409572Y-63121280D01*
X119227002Y-63216726D01*
X119222201Y-63220586D01*
X119222198Y-63220588D01*
X119071254Y-63341950D01*
X119066447Y-63345815D01*
X118934024Y-63503630D01*
X118931056Y-63509028D01*
X118931053Y-63509033D01*
X118924315Y-63521290D01*
X118834776Y-63684162D01*
X118772484Y-63880532D01*
X118771798Y-63886649D01*
X118771797Y-63886653D01*
X118750207Y-64079137D01*
X118749520Y-64085262D01*
X118319138Y-64085262D01*
X118300480Y-63894970D01*
X118240935Y-63697749D01*
X118144218Y-63515849D01*
X118070859Y-63425902D01*
X118017906Y-63360975D01*
X118017903Y-63360972D01*
X118014011Y-63356200D01*
X117996786Y-63341950D01*
X117860025Y-63228811D01*
X117860021Y-63228809D01*
X117855275Y-63224882D01*
X117674055Y-63126897D01*
X117477254Y-63065977D01*
X117471129Y-63065333D01*
X117471128Y-63065333D01*
X117278498Y-63045087D01*
X117278496Y-63045087D01*
X117272369Y-63044443D01*
X117185529Y-63052346D01*
X117073342Y-63062555D01*
X117073339Y-63062556D01*
X117067203Y-63063114D01*
X116869572Y-63121280D01*
X116687002Y-63216726D01*
X116682201Y-63220586D01*
X116682198Y-63220588D01*
X116531254Y-63341950D01*
X116526447Y-63345815D01*
X116394024Y-63503630D01*
X116391056Y-63509028D01*
X116391053Y-63509033D01*
X116384315Y-63521290D01*
X116294776Y-63684162D01*
X116232484Y-63880532D01*
X116231798Y-63886649D01*
X116231797Y-63886653D01*
X116210207Y-64079137D01*
X116209520Y-64085262D01*
X115775500Y-64085262D01*
X115775500Y-63230252D01*
X115763867Y-63171769D01*
X115719552Y-63105448D01*
X115653231Y-63061133D01*
X115641062Y-63058712D01*
X115641061Y-63058712D01*
X115600816Y-63050707D01*
X115594748Y-63049500D01*
X113855252Y-63049500D01*
X113849184Y-63050707D01*
X113808939Y-63058712D01*
X113808938Y-63058712D01*
X113796769Y-63061133D01*
X113730448Y-63105448D01*
X113686133Y-63171769D01*
X113674500Y-63230252D01*
X113674500Y-64969748D01*
X100200500Y-64969748D01*
X100200500Y-59581748D01*
X131087500Y-59581748D01*
X131099133Y-59640231D01*
X131143448Y-59706552D01*
X131209769Y-59750867D01*
X131221938Y-59753288D01*
X131221939Y-59753288D01*
X131262184Y-59761293D01*
X131268252Y-59762500D01*
X132831748Y-59762500D01*
X132837816Y-59761293D01*
X132878061Y-59753288D01*
X132878062Y-59753288D01*
X132890231Y-59750867D01*
X132956552Y-59706552D01*
X133000867Y-59640231D01*
X133012500Y-59581748D01*
X133012500Y-58786496D01*
X133622937Y-58786496D01*
X133638732Y-58974590D01*
X133640431Y-58980515D01*
X133664168Y-59063295D01*
X133690760Y-59156034D01*
X133777040Y-59323917D01*
X133780865Y-59328743D01*
X133780867Y-59328746D01*
X133890456Y-59467014D01*
X133890460Y-59467019D01*
X133894285Y-59471844D01*
X134038030Y-59594180D01*
X134043408Y-59597186D01*
X134043410Y-59597187D01*
X134098653Y-59628061D01*
X134202800Y-59686267D01*
X134382317Y-59744595D01*
X134569745Y-59766945D01*
X134575880Y-59766473D01*
X134575882Y-59766473D01*
X134751803Y-59752937D01*
X134751807Y-59752936D01*
X134757945Y-59752464D01*
X134763877Y-59750808D01*
X134763881Y-59750807D01*
X134933804Y-59703363D01*
X134933808Y-59703362D01*
X134939748Y-59701703D01*
X135031190Y-59655513D01*
X135102728Y-59619377D01*
X135102730Y-59619376D01*
X135108229Y-59616598D01*
X135256970Y-59500388D01*
X135260996Y-59495724D01*
X135260999Y-59495721D01*
X135376278Y-59362169D01*
X135376279Y-59362167D01*
X135380307Y-59357501D01*
X135402639Y-59318190D01*
X135453677Y-59268841D01*
X135512194Y-59254428D01*
X136204321Y-59254428D01*
X136272442Y-59274430D01*
X136312096Y-59315156D01*
X136347595Y-59373772D01*
X136375401Y-59409880D01*
X136494155Y-59532854D01*
X136510112Y-59546054D01*
X136526555Y-59559658D01*
X136526561Y-59559662D01*
X136529273Y-59561906D01*
X136532224Y-59563837D01*
X136630370Y-59628061D01*
X136672321Y-59655513D01*
X136712999Y-59676061D01*
X136873231Y-59735651D01*
X136876647Y-59736503D01*
X136876648Y-59736503D01*
X136914046Y-59745827D01*
X136914049Y-59745828D01*
X136917452Y-59746676D01*
X136920934Y-59747141D01*
X136920936Y-59747141D01*
X137083409Y-59768820D01*
X137083415Y-59768820D01*
X137086904Y-59769286D01*
X137090431Y-59769360D01*
X137090432Y-59769360D01*
X137098803Y-59769535D01*
X137132469Y-59770241D01*
X137135972Y-59769922D01*
X137135977Y-59769922D01*
X137262805Y-59758379D01*
X137302719Y-59754747D01*
X137306167Y-59754039D01*
X137306175Y-59754038D01*
X137343919Y-59746289D01*
X137347363Y-59745582D01*
X137490970Y-59698921D01*
X137506608Y-59693840D01*
X137506610Y-59693839D01*
X137509950Y-59692754D01*
X137513142Y-59691306D01*
X137513150Y-59691303D01*
X137548244Y-59675384D01*
X137548243Y-59675384D01*
X137551454Y-59673928D01*
X137698296Y-59586393D01*
X137734597Y-59558838D01*
X137737136Y-59556420D01*
X137737142Y-59556415D01*
X137855850Y-59443371D01*
X137855855Y-59443366D01*
X137858397Y-59440945D01*
X137887693Y-59406032D01*
X137889638Y-59403105D01*
X137980346Y-59266578D01*
X137980348Y-59266574D01*
X137982297Y-59263641D01*
X138003128Y-59223107D01*
X138063835Y-59063295D01*
X138075170Y-59019152D01*
X138098962Y-58849862D01*
X138100931Y-58824266D01*
X138101230Y-58802855D01*
X138100731Y-58792639D01*
X138100072Y-58779181D01*
X138099976Y-58777213D01*
X138080920Y-58607325D01*
X138070823Y-58562883D01*
X138014602Y-58401438D01*
X137994910Y-58360336D01*
X137993056Y-58357368D01*
X137993051Y-58357360D01*
X137906180Y-58218339D01*
X137904318Y-58215359D01*
X137876009Y-58179643D01*
X137873536Y-58177153D01*
X137873531Y-58177147D01*
X137758021Y-58060828D01*
X137758018Y-58060825D01*
X137755550Y-58058340D01*
X137720032Y-58029783D01*
X137575691Y-57938181D01*
X137534729Y-57918202D01*
X137531419Y-57917023D01*
X137531411Y-57917020D01*
X137377002Y-57862038D01*
X137377003Y-57862038D01*
X137373680Y-57860855D01*
X137346235Y-57854418D01*
X137332733Y-57851251D01*
X137332728Y-57851250D01*
X137329308Y-57850448D01*
X137306748Y-57847758D01*
X137163056Y-57830624D01*
X137163052Y-57830624D01*
X137159557Y-57830207D01*
X137156038Y-57830182D01*
X137156031Y-57830182D01*
X137137104Y-57830050D01*
X137113985Y-57829889D01*
X137110486Y-57830257D01*
X137110481Y-57830257D01*
X136947456Y-57847391D01*
X136947449Y-57847392D01*
X136943968Y-57847758D01*
X136914336Y-57854273D01*
X136902879Y-57856792D01*
X136902876Y-57856793D01*
X136899455Y-57857545D01*
X136737622Y-57912638D01*
X136734436Y-57914137D01*
X136734434Y-57914138D01*
X136699577Y-57930540D01*
X136699571Y-57930543D01*
X136696386Y-57932042D01*
X136550780Y-58021619D01*
X136548006Y-58023787D01*
X136548005Y-58023787D01*
X136537508Y-58031988D01*
X136514866Y-58049678D01*
X136392725Y-58169288D01*
X136390511Y-58172003D01*
X136390508Y-58172006D01*
X136384280Y-58179643D01*
X136363921Y-58204606D01*
X136328872Y-58258992D01*
X136310289Y-58287827D01*
X136256574Y-58334252D01*
X136204377Y-58345572D01*
X135514231Y-58345572D01*
X135446110Y-58325570D01*
X135402979Y-58278725D01*
X135398459Y-58270224D01*
X135395566Y-58264783D01*
X135355257Y-58215359D01*
X135319898Y-58172006D01*
X135276266Y-58118508D01*
X135270475Y-58113717D01*
X135135577Y-58002120D01*
X135135574Y-58002118D01*
X135130827Y-57998191D01*
X134964788Y-57908414D01*
X134784474Y-57852597D01*
X134778356Y-57851954D01*
X134778351Y-57851953D01*
X134602881Y-57833511D01*
X134602879Y-57833511D01*
X134596752Y-57832867D01*
X134481125Y-57843390D01*
X134414914Y-57849415D01*
X134414913Y-57849415D01*
X134408773Y-57849974D01*
X134227697Y-57903268D01*
X134222232Y-57906125D01*
X134206905Y-57914138D01*
X134060420Y-57990718D01*
X133913316Y-58108993D01*
X133791986Y-58253588D01*
X133789016Y-58258991D01*
X133789015Y-58258992D01*
X133741417Y-58345572D01*
X133701052Y-58418996D01*
X133643978Y-58598917D01*
X133643292Y-58605036D01*
X133643291Y-58605039D01*
X133623624Y-58780371D01*
X133622937Y-58786496D01*
X133012500Y-58786496D01*
X133012500Y-58018252D01*
X133007023Y-57990718D01*
X133003288Y-57971939D01*
X133003288Y-57971938D01*
X133000867Y-57959769D01*
X132956552Y-57893448D01*
X132890231Y-57849133D01*
X132878062Y-57846712D01*
X132878061Y-57846712D01*
X132837816Y-57838707D01*
X132831748Y-57837500D01*
X131268252Y-57837500D01*
X131262184Y-57838707D01*
X131221939Y-57846712D01*
X131221938Y-57846712D01*
X131209769Y-57849133D01*
X131143448Y-57893448D01*
X131099133Y-57959769D01*
X131096712Y-57971938D01*
X131096712Y-57971939D01*
X131092977Y-57990718D01*
X131087500Y-58018252D01*
X131087500Y-59581748D01*
X100200500Y-59581748D01*
X100200500Y-56125000D01*
X117419750Y-56125000D01*
X117438670Y-56268709D01*
X117494139Y-56402625D01*
X117582379Y-56517621D01*
X117697375Y-56605861D01*
X117831291Y-56661330D01*
X117975000Y-56680250D01*
X118118709Y-56661330D01*
X118252625Y-56605861D01*
X118323296Y-56551633D01*
X118389516Y-56526032D01*
X118459065Y-56540297D01*
X118476704Y-56551633D01*
X118547375Y-56605861D01*
X118681291Y-56661330D01*
X118825000Y-56680250D01*
X118968709Y-56661330D01*
X119102625Y-56605861D01*
X119173296Y-56551633D01*
X119239516Y-56526032D01*
X119309065Y-56540297D01*
X119326704Y-56551633D01*
X119397375Y-56605861D01*
X119531291Y-56661330D01*
X119675000Y-56680250D01*
X119818709Y-56661330D01*
X119952625Y-56605861D01*
X120023296Y-56551633D01*
X120089516Y-56526032D01*
X120159065Y-56540297D01*
X120176704Y-56551633D01*
X120247375Y-56605861D01*
X120381291Y-56661330D01*
X120525000Y-56680250D01*
X120668709Y-56661330D01*
X120802625Y-56605861D01*
X120873296Y-56551633D01*
X120939516Y-56526032D01*
X121009065Y-56540297D01*
X121026704Y-56551633D01*
X121097375Y-56605861D01*
X121231291Y-56661330D01*
X121375000Y-56680250D01*
X121518709Y-56661330D01*
X121652625Y-56605861D01*
X121723296Y-56551633D01*
X121789516Y-56526032D01*
X121859065Y-56540297D01*
X121876704Y-56551633D01*
X121947375Y-56605861D01*
X122081291Y-56661330D01*
X122225000Y-56680250D01*
X122368709Y-56661330D01*
X122502625Y-56605861D01*
X122617621Y-56517621D01*
X122705861Y-56402625D01*
X122761330Y-56268709D01*
X122780250Y-56125000D01*
X122761330Y-55981291D01*
X122705861Y-55847375D01*
X122617621Y-55732379D01*
X122502625Y-55644139D01*
X122368709Y-55588670D01*
X122264285Y-55574922D01*
X122224375Y-55557266D01*
X122185715Y-55574922D01*
X122081291Y-55588670D01*
X121947375Y-55644139D01*
X121881241Y-55694886D01*
X121876704Y-55698367D01*
X121810484Y-55723968D01*
X121740935Y-55709703D01*
X121723296Y-55698367D01*
X121718759Y-55694886D01*
X121652625Y-55644139D01*
X121518709Y-55588670D01*
X121414285Y-55574922D01*
X121374375Y-55557266D01*
X121335715Y-55574922D01*
X121231291Y-55588670D01*
X121097375Y-55644139D01*
X121031241Y-55694886D01*
X121026704Y-55698367D01*
X120960484Y-55723968D01*
X120890935Y-55709703D01*
X120873296Y-55698367D01*
X120868759Y-55694886D01*
X120802625Y-55644139D01*
X120668709Y-55588670D01*
X120564285Y-55574922D01*
X120524375Y-55557266D01*
X120485715Y-55574922D01*
X120381291Y-55588670D01*
X120247375Y-55644139D01*
X120181241Y-55694886D01*
X120176704Y-55698367D01*
X120110484Y-55723968D01*
X120040935Y-55709703D01*
X120023296Y-55698367D01*
X120018759Y-55694886D01*
X119952625Y-55644139D01*
X119818709Y-55588670D01*
X119714285Y-55574922D01*
X119674375Y-55557266D01*
X119635715Y-55574922D01*
X119531291Y-55588670D01*
X119397375Y-55644139D01*
X119331241Y-55694886D01*
X119326704Y-55698367D01*
X119260484Y-55723968D01*
X119190935Y-55709703D01*
X119173296Y-55698367D01*
X119168759Y-55694886D01*
X119102625Y-55644139D01*
X118968709Y-55588670D01*
X118864285Y-55574922D01*
X118824375Y-55557266D01*
X118785715Y-55574922D01*
X118681291Y-55588670D01*
X118547375Y-55644139D01*
X118481241Y-55694886D01*
X118476704Y-55698367D01*
X118410484Y-55723968D01*
X118340935Y-55709703D01*
X118323296Y-55698367D01*
X118318759Y-55694886D01*
X118252625Y-55644139D01*
X118118709Y-55588670D01*
X118014285Y-55574922D01*
X117974375Y-55557266D01*
X117935715Y-55574922D01*
X117831291Y-55588670D01*
X117697375Y-55644139D01*
X117582379Y-55732379D01*
X117494139Y-55847375D01*
X117438670Y-55981291D01*
X117419750Y-56125000D01*
X100200500Y-56125000D01*
X100200500Y-53000000D01*
X100594754Y-53000000D01*
X100613720Y-53301457D01*
X100670319Y-53598160D01*
X100763659Y-53885430D01*
X100765346Y-53889016D01*
X100765348Y-53889020D01*
X100890579Y-54155150D01*
X100890583Y-54155157D01*
X100892267Y-54158736D01*
X101054115Y-54413768D01*
X101246651Y-54646504D01*
X101466838Y-54853274D01*
X101711205Y-55030816D01*
X101714674Y-55032723D01*
X101714677Y-55032725D01*
X101960051Y-55167621D01*
X101975896Y-55176332D01*
X101979565Y-55177785D01*
X101979570Y-55177787D01*
X102184745Y-55259021D01*
X102256738Y-55287525D01*
X102549302Y-55362642D01*
X102848973Y-55400500D01*
X103151027Y-55400500D01*
X103450698Y-55362642D01*
X103743262Y-55287525D01*
X103815255Y-55259021D01*
X104020430Y-55177787D01*
X104020435Y-55177785D01*
X104024104Y-55176332D01*
X104039949Y-55167621D01*
X104285323Y-55032725D01*
X104285326Y-55032723D01*
X104288795Y-55030816D01*
X104533162Y-54853274D01*
X104616515Y-54775000D01*
X117419750Y-54775000D01*
X117438670Y-54918709D01*
X117494139Y-55052625D01*
X117582379Y-55167621D01*
X117697375Y-55255861D01*
X117831291Y-55311330D01*
X117902530Y-55320709D01*
X117935715Y-55325078D01*
X117975625Y-55342734D01*
X118014285Y-55325078D01*
X118047470Y-55320709D01*
X118118709Y-55311330D01*
X118252625Y-55255861D01*
X118323296Y-55201633D01*
X118389516Y-55176032D01*
X118459065Y-55190297D01*
X118476704Y-55201633D01*
X118547375Y-55255861D01*
X118681291Y-55311330D01*
X118752530Y-55320709D01*
X118785715Y-55325078D01*
X118825625Y-55342734D01*
X118864285Y-55325078D01*
X118897470Y-55320709D01*
X118968709Y-55311330D01*
X119102625Y-55255861D01*
X119173296Y-55201633D01*
X119239516Y-55176032D01*
X119309065Y-55190297D01*
X119326704Y-55201633D01*
X119397375Y-55255861D01*
X119531291Y-55311330D01*
X119602530Y-55320709D01*
X119635715Y-55325078D01*
X119675625Y-55342734D01*
X119714285Y-55325078D01*
X119747470Y-55320709D01*
X119818709Y-55311330D01*
X119952625Y-55255861D01*
X120023296Y-55201633D01*
X120089516Y-55176032D01*
X120159065Y-55190297D01*
X120176704Y-55201633D01*
X120247375Y-55255861D01*
X120381291Y-55311330D01*
X120452530Y-55320709D01*
X120485715Y-55325078D01*
X120525625Y-55342734D01*
X120564285Y-55325078D01*
X120597470Y-55320709D01*
X120668709Y-55311330D01*
X120802625Y-55255861D01*
X120873296Y-55201633D01*
X120939516Y-55176032D01*
X121009065Y-55190297D01*
X121026704Y-55201633D01*
X121097375Y-55255861D01*
X121231291Y-55311330D01*
X121302530Y-55320709D01*
X121335715Y-55325078D01*
X121375625Y-55342734D01*
X121414285Y-55325078D01*
X121447470Y-55320709D01*
X121518709Y-55311330D01*
X121652625Y-55255861D01*
X121723296Y-55201633D01*
X121789516Y-55176032D01*
X121859065Y-55190297D01*
X121876704Y-55201633D01*
X121947375Y-55255861D01*
X122081291Y-55311330D01*
X122152530Y-55320709D01*
X122185715Y-55325078D01*
X122225625Y-55342734D01*
X122264285Y-55325078D01*
X122297470Y-55320709D01*
X122368709Y-55311330D01*
X122502625Y-55255861D01*
X122617621Y-55167621D01*
X122705861Y-55052625D01*
X122761330Y-54918709D01*
X122780250Y-54775000D01*
X122761330Y-54631291D01*
X122705861Y-54497375D01*
X122617621Y-54382379D01*
X122502625Y-54294139D01*
X122368709Y-54238670D01*
X122225000Y-54219750D01*
X122081291Y-54238670D01*
X121947375Y-54294139D01*
X121894539Y-54334682D01*
X121876704Y-54348367D01*
X121810484Y-54373968D01*
X121740935Y-54359703D01*
X121723296Y-54348367D01*
X121705461Y-54334682D01*
X121652625Y-54294139D01*
X121518709Y-54238670D01*
X121375000Y-54219750D01*
X121231291Y-54238670D01*
X121097375Y-54294139D01*
X121044539Y-54334682D01*
X121026704Y-54348367D01*
X120960484Y-54373968D01*
X120890935Y-54359703D01*
X120873296Y-54348367D01*
X120855461Y-54334682D01*
X120802625Y-54294139D01*
X120668709Y-54238670D01*
X120525000Y-54219750D01*
X120381291Y-54238670D01*
X120247375Y-54294139D01*
X120194539Y-54334682D01*
X120176704Y-54348367D01*
X120110484Y-54373968D01*
X120040935Y-54359703D01*
X120023296Y-54348367D01*
X120005461Y-54334682D01*
X119952625Y-54294139D01*
X119818709Y-54238670D01*
X119675000Y-54219750D01*
X119531291Y-54238670D01*
X119397375Y-54294139D01*
X119344539Y-54334682D01*
X119326704Y-54348367D01*
X119260484Y-54373968D01*
X119190935Y-54359703D01*
X119173296Y-54348367D01*
X119155461Y-54334682D01*
X119102625Y-54294139D01*
X118968709Y-54238670D01*
X118825000Y-54219750D01*
X118681291Y-54238670D01*
X118547375Y-54294139D01*
X118494539Y-54334682D01*
X118476704Y-54348367D01*
X118410484Y-54373968D01*
X118340935Y-54359703D01*
X118323296Y-54348367D01*
X118305461Y-54334682D01*
X118252625Y-54294139D01*
X118118709Y-54238670D01*
X117975000Y-54219750D01*
X117831291Y-54238670D01*
X117697375Y-54294139D01*
X117582379Y-54382379D01*
X117494139Y-54497375D01*
X117438670Y-54631291D01*
X117419750Y-54775000D01*
X104616515Y-54775000D01*
X104753349Y-54646504D01*
X104945885Y-54413768D01*
X105107733Y-54158736D01*
X105109417Y-54155157D01*
X105109421Y-54155150D01*
X105234652Y-53889020D01*
X105234654Y-53889016D01*
X105236341Y-53885430D01*
X105287168Y-53729000D01*
X126521318Y-53729000D01*
X126541956Y-53885762D01*
X126602464Y-54031841D01*
X126698718Y-54157282D01*
X126824159Y-54253536D01*
X126970238Y-54314044D01*
X127127000Y-54334682D01*
X127135188Y-54333604D01*
X127275574Y-54315122D01*
X127283762Y-54314044D01*
X127429841Y-54253536D01*
X127555282Y-54157282D01*
X127651536Y-54031841D01*
X127712044Y-53885762D01*
X127732682Y-53729000D01*
X127712044Y-53572238D01*
X127651536Y-53426159D01*
X127555282Y-53300718D01*
X127429841Y-53204464D01*
X127283762Y-53143956D01*
X127127000Y-53123318D01*
X126970238Y-53143956D01*
X126824159Y-53204464D01*
X126698718Y-53300718D01*
X126602464Y-53426159D01*
X126541956Y-53572238D01*
X126521318Y-53729000D01*
X105287168Y-53729000D01*
X105329681Y-53598160D01*
X105386280Y-53301457D01*
X105405246Y-53000000D01*
X134594754Y-53000000D01*
X134613720Y-53301457D01*
X134670319Y-53598160D01*
X134763659Y-53885430D01*
X134765346Y-53889016D01*
X134765348Y-53889020D01*
X134890579Y-54155150D01*
X134890583Y-54155157D01*
X134892267Y-54158736D01*
X135054115Y-54413768D01*
X135246651Y-54646504D01*
X135466838Y-54853274D01*
X135711205Y-55030816D01*
X135714674Y-55032723D01*
X135714677Y-55032725D01*
X135960051Y-55167621D01*
X135975896Y-55176332D01*
X135979565Y-55177785D01*
X135979570Y-55177787D01*
X136184745Y-55259021D01*
X136256738Y-55287525D01*
X136549302Y-55362642D01*
X136848973Y-55400500D01*
X137151027Y-55400500D01*
X137450698Y-55362642D01*
X137743262Y-55287525D01*
X137815255Y-55259021D01*
X138020430Y-55177787D01*
X138020435Y-55177785D01*
X138024104Y-55176332D01*
X138039949Y-55167621D01*
X138285323Y-55032725D01*
X138285326Y-55032723D01*
X138288795Y-55030816D01*
X138533162Y-54853274D01*
X138753349Y-54646504D01*
X138945885Y-54413768D01*
X139107733Y-54158736D01*
X139109417Y-54155157D01*
X139109421Y-54155150D01*
X139234652Y-53889020D01*
X139234654Y-53889016D01*
X139236341Y-53885430D01*
X139329681Y-53598160D01*
X139386280Y-53301457D01*
X139405246Y-53000000D01*
X139386280Y-52698543D01*
X139329681Y-52401840D01*
X139236341Y-52114570D01*
X139234652Y-52110980D01*
X139109421Y-51844850D01*
X139109417Y-51844843D01*
X139107733Y-51841264D01*
X138945885Y-51586232D01*
X138753349Y-51353496D01*
X138533162Y-51146726D01*
X138288795Y-50969184D01*
X138024104Y-50823668D01*
X138020435Y-50822215D01*
X138020430Y-50822213D01*
X137746932Y-50713928D01*
X137746931Y-50713928D01*
X137743262Y-50712475D01*
X137450698Y-50637358D01*
X137151027Y-50599500D01*
X136848973Y-50599500D01*
X136549302Y-50637358D01*
X136256738Y-50712475D01*
X136253069Y-50713928D01*
X136253068Y-50713928D01*
X135979570Y-50822213D01*
X135979565Y-50822215D01*
X135975896Y-50823668D01*
X135711205Y-50969184D01*
X135466838Y-51146726D01*
X135246651Y-51353496D01*
X135054115Y-51586232D01*
X134892267Y-51841264D01*
X134890583Y-51844843D01*
X134890579Y-51844850D01*
X134765348Y-52110980D01*
X134763659Y-52114570D01*
X134670319Y-52401840D01*
X134613720Y-52698543D01*
X134594754Y-53000000D01*
X105405246Y-53000000D01*
X105386280Y-52698543D01*
X105329681Y-52401840D01*
X105236341Y-52114570D01*
X105234652Y-52110980D01*
X105109421Y-51844850D01*
X105109417Y-51844843D01*
X105107733Y-51841264D01*
X104945885Y-51586232D01*
X104753349Y-51353496D01*
X104533162Y-51146726D01*
X104288795Y-50969184D01*
X104024104Y-50823668D01*
X104020435Y-50822215D01*
X104020430Y-50822213D01*
X103746932Y-50713928D01*
X103746931Y-50713928D01*
X103743262Y-50712475D01*
X103450698Y-50637358D01*
X103151027Y-50599500D01*
X102848973Y-50599500D01*
X102549302Y-50637358D01*
X102256738Y-50712475D01*
X102253069Y-50713928D01*
X102253068Y-50713928D01*
X101979570Y-50822213D01*
X101979565Y-50822215D01*
X101975896Y-50823668D01*
X101711205Y-50969184D01*
X101466838Y-51146726D01*
X101246651Y-51353496D01*
X101054115Y-51586232D01*
X100892267Y-51841264D01*
X100890583Y-51844843D01*
X100890579Y-51844850D01*
X100765348Y-52110980D01*
X100763659Y-52114570D01*
X100670319Y-52401840D01*
X100613720Y-52698543D01*
X100594754Y-53000000D01*
X100200500Y-53000000D01*
X100200500Y-50326500D01*
X100220502Y-50258379D01*
X100274158Y-50211886D01*
X100326500Y-50200500D01*
X139673500Y-50200500D01*
X139741621Y-50220502D01*
G37*
%TD.AperFunction*%
%TD*%
M02*
